<mxfile host="app.diagrams.net" agent="Mozilla/5.0 (Windows NT 10.0; Win64; x64) AppleWebKit/537.36 (KHTML, like Gecko) Chrome/139.0.0.0 Safari/537.36" version="28.1.1">
  <diagram name="第 1 页" id="HRgAKjg0moOGH-EYoAK6">
    <mxGraphModel dx="1485" dy="770" grid="1" gridSize="10" guides="1" tooltips="1" connect="1" arrows="1" fold="1" page="1" pageScale="1" pageWidth="1920" pageHeight="1200" math="0" shadow="0">
      <root>
        <mxCell id="0" />
        <mxCell id="1" parent="0" />
        <mxCell id="gRE93O7xviKR9VaK8GBR-8" style="edgeStyle=orthogonalEdgeStyle;rounded=0;orthogonalLoop=1;jettySize=auto;html=1;exitX=0.5;exitY=1;exitDx=0;exitDy=0;entryX=0.5;entryY=0;entryDx=0;entryDy=0;" edge="1" parent="1" source="gRE93O7xviKR9VaK8GBR-1" target="gRE93O7xviKR9VaK8GBR-5">
          <mxGeometry relative="1" as="geometry" />
        </mxCell>
        <mxCell id="gRE93O7xviKR9VaK8GBR-9" value="激励" style="edgeLabel;html=1;align=center;verticalAlign=middle;resizable=0;points=[];fontStyle=1" vertex="1" connectable="0" parent="gRE93O7xviKR9VaK8GBR-8">
          <mxGeometry x="0.1049" relative="1" as="geometry">
            <mxPoint as="offset" />
          </mxGeometry>
        </mxCell>
        <mxCell id="gRE93O7xviKR9VaK8GBR-1" value="&lt;font style=&quot;font-size: 15px;&quot;&gt;信号发生器(101)&lt;/font&gt;" style="swimlane;whiteSpace=wrap;html=1;fontFamily=Times New Roman;startSize=23;" vertex="1" parent="1">
          <mxGeometry x="380" y="70" width="210" height="90" as="geometry" />
        </mxCell>
        <mxCell id="gRE93O7xviKR9VaK8GBR-4" value="（DDS，1kHz）" style="text;html=1;align=center;verticalAlign=middle;resizable=0;points=[];autosize=1;strokeColor=none;fillColor=none;fontStyle=1;fontFamily=Times New Roman;fontSize=16;" vertex="1" parent="gRE93O7xviKR9VaK8GBR-1">
          <mxGeometry x="35" y="40" width="140" height="30" as="geometry" />
        </mxCell>
        <mxCell id="gRE93O7xviKR9VaK8GBR-22" style="edgeStyle=orthogonalEdgeStyle;rounded=0;orthogonalLoop=1;jettySize=auto;html=1;exitX=0.5;exitY=1;exitDx=0;exitDy=0;entryX=0.5;entryY=0;entryDx=0;entryDy=0;" edge="1" parent="1" source="gRE93O7xviKR9VaK8GBR-5" target="gRE93O7xviKR9VaK8GBR-10">
          <mxGeometry relative="1" as="geometry">
            <mxPoint x="480" y="360" as="targetPoint" />
          </mxGeometry>
        </mxCell>
        <mxCell id="gRE93O7xviKR9VaK8GBR-23" value="V_unbalance" style="edgeLabel;html=1;align=center;verticalAlign=middle;resizable=0;points=[];fontStyle=1" vertex="1" connectable="0" parent="gRE93O7xviKR9VaK8GBR-22">
          <mxGeometry x="-0.2315" y="1" relative="1" as="geometry">
            <mxPoint as="offset" />
          </mxGeometry>
        </mxCell>
        <mxCell id="gRE93O7xviKR9VaK8GBR-5" value="&lt;font style=&quot;font-size: 15px;&quot;&gt;变压器比率电桥(102)&lt;/font&gt;" style="swimlane;whiteSpace=wrap;html=1;fontFamily=Times New Roman;startSize=23;" vertex="1" parent="1">
          <mxGeometry x="380" y="200" width="210" height="90" as="geometry" />
        </mxCell>
        <mxCell id="gRE93O7xviKR9VaK8GBR-6" value="待测电容Cx&lt;div&gt;标准电容Cs&lt;/div&gt;" style="text;html=1;align=center;verticalAlign=middle;resizable=0;points=[];autosize=1;strokeColor=none;fillColor=none;fontStyle=1;fontFamily=Times New Roman;fontSize=16;" vertex="1" parent="gRE93O7xviKR9VaK8GBR-5">
          <mxGeometry x="50" y="30" width="110" height="50" as="geometry" />
        </mxCell>
        <mxCell id="gRE93O7xviKR9VaK8GBR-7" value="" style="shape=image;verticalLabelPosition=bottom;labelBackgroundColor=default;verticalAlign=top;aspect=fixed;imageAspect=0;image=data:image/png,iVBORw0KGgoAAAANSUhEUgAAAzwAAAH3CAIAAADxJM3nAAAQAElEQVR4Aey9CbxV1ZnmDShOoAlBQFM4UdqVTpwIjr/Q1RLjRHlB5dJCokFvwoeKU+snamFEUrE12to4YKRIrhI1YHER4RoUh0BVk3KIBBxi0m0+R0oZNCQRVETl+8ObrKystc++Zz5nn/PU7+m33/Wsd71r7Wevvfd79r6YHp/d4wuCFJACUkAKSAEpIAWkQJ0r0KOb93/b99iyc49Pd9lOkAJSQApIASmQvwKKlAJSoPwKUJJRmHllWrc/FW3bdd+y83af7tB9S/fufq98KSAFpIAUkAJSQApIgRooQElGYUZ5RpFm028t2mjs2GOLqjVTRLahFNDBSAEpIAWkgBTIsgKUZxRplGocxNaibYceW/AEKSAFpIAUkAJSQApIgVCBOmhbqdaDz6UUcXWwHi1BCkgBKSAFpIAUkAJSIEEBSjUKth49u+k1W4I6oqSAFJAC9a+AVigFpEDzKEDB1qM7xVvzHLGOVApIASkgBaSAFJACGVSAgm3r37RlcOVacp0roOVJASkgBaSAFJACZVZARVuZBVU6KSAFpIAUkAJSoBwKKEeogIq2UBG1pYAUkAJSQApIASlQhwqoaKvDk6IlSQEpUN8KaHVSQApIgVoooKKtFqprTikgBaSAFJACUkAKFKiAirYCBavvcK1OCkgBKSAFpIAUaFQFVLQ16pnVcUkBKSAFpIAUKEYBjalbBVS01e2p0cKkgBSQAlJACkgBKfAXBVS0/UULeVJACtS3AlqdFJACUqCpFVDR1tSnXwcvBaSAFJACUkAKZEUBFW3lOFPKIQWkgBSQAlJACmRWgZ133mmvvf5m8OCD/ut//coJJxw7fPhxZcZJxx133LCvfOXIL33pC/37796z5/bFSaWirTjdNEoKSAEpIAWkQFkVULJaKNCr1y5f+MIBRx99xNZyql+/HXfY4dNPP9n80eYy4+PN3bt1691rl70G/s2QIYceccQQasQdduhZ6BGraCtUMcVLASkgBaSAFJACjaDAHnsM+PKXD9l337233267Tz7+5NNPP92yZUu3LRU4NLJu2UL6Tz755OOPP+7du9eBB/7nAw/84q679i5oMhVtBcmlYCnQjAromKWAFJACjafA3nsP5B3bLrvs/Mknn2yhVqvaEW7p9uknn1K68Z30S1/8wmc/+5n8Z1bRlr9WipQCUkAKSAEpIAUaQYGBAz+/375784GS+qkir9a6FGlLN4pFKrYDDvjbz3xmty7DLSDTRZsdgqwUkAJSQApIASkgBfJVoO/n+vCabceddtzyaSU+hea7DIrFTz79pG/fPnvt9Te88MtnmIq2fFRSjBSQAlJACjSqAjqu5lKge/fun/+bPXv12qWqn0RzabztU+kee/T/zG67sbBcUY5X0eakkCMFpIAUkAJSQAo0uAL9+u2+2267bq2QavqWzalM7bj9dtsPGNCPOtKRuRwVbbmUES8Faq2A5pcCUkAKSIFyK/C5z312Jz6MVvNfHnR1CJ9++uln+3x255137iqwm4q2LiVSgBSQAlJACkgBKdAICvCCrVevXrzZ6lYfr9lM0y3dtuy8004777zTdtttZ0wuW0zRliuXeCkgBaSAFJACUkAK1K0CFG09unenSKqvFbKgLVt69uy5/fYq2urrzGg1UkAKSAEpsFUB/T8pUH0FthZtPdJeV636j1U///efP/HEEz9b8rPXX39988ebbZEff7z5179+acnSJUEXXzZfeeWV//vy/3399deefuZpev/t3/7t7dVvf/rpJ++9997y5ct/+9uXN23a5Cf59a9/vfH9jcY4S9lGxdYjdW0Epy2d7i4xbfpdCx5e5jB73mLnB859cxfN61wSkNbsWLik/d755se2yjlnze6c88Cj8TKM+fGcTnNim7LOonMiC+LEc8HM61w6d8ETOIlIWWfNc7aNP7/LfVXzAG1st68afmPPaL/fHWzgpNy10i/AcuVssIul6DthJTZhJXLW/O7qb+BybcLSc/IUQxk/DzfYWt3ku3fv1g0kfRu18uvNN98cNGjQsGHHHPNfj9lxpx0/+OCDLVu2fPDhB7/61UufbtlyxBFHHHvssQcddNDqNatff+01V42tXr367bdX/+3f/u0xxxwzcODAt95663fr1++yyy59+vT54IMPP9z0Ybdt/4e/efPHW/98baedthGe2dKt+7b/86gEt9SijZSvvvLyyJOGGsaOOsGc2H5j9PBRLcNiHqZ1xLC2M07FSUSVc44b2zLmtOMTVwL5zTEt2ESkrLPonMiCOInTjWo5ZvTIYxO7IFPWWcOc11x16fsbN7Bn6ht/Wp02NhsJNPzGntB2OoeZiJS7VvoFWHrOhrxYir4TVmITViJnDe+u8QYufROWKydPMZRx2bi1/ukmW2f/37u/e5f/+/yen99999179NiuR48eewzYY7ddt/6XOOB5EzZgwIBddt6FVff9XN9+u/ejAnPVWK9evfY/YH/47bbbrl+/fj26d9+4YeOnWz7ddbddP/zww9+v/z1v7CgK161bR2FGMdejx3bkKQJlKNqKmFVDpIAUkAJSQApIASlQZQW2bOm29Z8g8LItmpjXZj136Nmr97Z/puD1Umx9tOkjKq2dd96ZkoueHj16UI1179F98+bNvIeD2YGRPXta7/Y9t+/RY7vNH2/+9JNP+3z2s71793r//fc/+ogcm97/4P3PfvazpGJIiO7dSAVC/q/bKtr+Wg+1pIAUkAJSQApIgQZVgKro062FW2UPb7vtt9txhx15W7f99j133W23TR9t4jPre++917Nnz90+s1vP7XsmTv/xx59QICZ2OVJFm5NCjhSQAlKgCRTQIUqBJlZga9H2ySeJAuy4447UTNtenn3qB/To0WOHHXfgbRmFF8PpIuy9P7635dOt/97T3q5BOny8+WPesfG+jS+skH379t1+++03bNjwxz/8cbfddkt+zdatW/duW9/bUbd1S/0/FW2p8qhTCkgBKSAFpIAUaBQFqLo2vv/+J9Rt3cND4lPmzjvt9Oabb/5u/XrCqMxWr1n9x/f+iP+Z3T7zycefrF69mu+bDLO/fkuswD748INXXnmFN2309tj2h2u8cttl513eeOONd955hzdtW/8TcaT4a3Tv0Z2Psx988OHWhf11V9BS0RYIombNFNDEUkAKSAEpIAUqrcDvfvf7TR9+FL8h2377nn/3d1/Yve/uL7300s9+9rOl/7p004eb7O/Ydt111y9+6YvUbU8/9dQTTzzx65d+PXCvgXvtNdB96Fz/+/XP/uJZuv795//eq9cu+//t/r126WUH0qNHj379+tHcffe+u/be9j+fZR2e7dG9x/r1v+dNnscluyraknURKwWkgBSQAlJACmROgS4XvG7dO3/449b3Z3ySDIIpsAYNGvT3/+Xvjz322K8O++o+++zjyrKdd9r5kEMO+epXj+X//v7v/37PPfbsse1FmmXo89k+hx1+GF1g//0P4Eur8c7yjq1X7949e27vGOdQPn78ycdr1qzbuPF9R+ZyVLTlUka8FJACUkAKSAEp0GgK8Lnzrf94mwqpR48ecd1W9qO1D6a79Nrlc30+18Or89xEPXr0WL167Z/qSMfmcHrk4EVLASkgBaRAGRVQKikgBepFgXd/t/6NN1Z9+MGHvOWq3JrWvbPu6Weetg+mfE2NX78x9Xbbbcdi3nzzP95//wOaXaLUou3iiWeDLqdRgBRAgRXLnx7bemL7zNvx6xzsalDni9TyGlgBXSwNfHKb/NC4tYKai7Bq1VuvvvbGRx9t7rFdj1Let/Xo0YMvqgcddNBndvtMcFD9du935BFH5vpgyqRUbOt//4eXX/7//vCHPwZjczV75OoQ3ywK6DilgBSQAlJACjSfArxs+81vXuYVF8VTRV+5xdJS6m2//fZr173z0ku/+f3v/xAH5GJUtOVSRrwUkAJSQApIASmQnwLZjFq9es0vf/nca6+98fEnn1BF8date4/uvAMr/9GQlcKwR3em2L7n9hs3vv/ii79+8cWX3ntvQ0FzqWgrSC4FSwEpIAWkgBSQAo2jAPUT79uefPKZF3/167Vr123a9FGPHttt/V+l2qFnOe32Pbd068ZcfJZdvnzl0888++ab/8HH2UJ1LLVomzb9LlDorIpvKgUmT7l+5qyOvffZr5GOmm0PGumIGvVYGua4Wk4ZPbvjEWzDHBEH0pA3B45LqI4CZdw/H3zwIVXUihUv/Ou//nzx4icWLXqszHj4scceW/Lznz/9q1/9Zu3adzZv/rg4iUot2oqbtcRRCx5e5mcImn5XGf3iZiluVBmXrVS1VSArG6DQdeYfT6QP/3TA+80UP8/IlLCUrpR51ZVdBYIzHjSrcFxdzugCnNPlqnJF5uK7TKiAzCmQyaItUHnkSUO73LIE5EKQzW8yxG86PxdvAem9FtOt21/9/wzxYX0+g2+kbLYUyGdz2hFxivOBBTsbDDE+kbQuswSYU7TN/7iYgmADPmB2Q+DTrAT8uSqRXzkzoQA7kJ2QvlQCciF9oN/rMkDiY7tEPmuzJImRzAJvAbGlNx3xEDH1rECGizZ/IyJx0IQJwLaOEcTk2SQP0+UZnGcYOQ1+vDFYn5RfXgX4bvs/p/3z18/81nbbbVdiZnZFDHLGJAx8AE50lwiG0HRD8B0SSddbhMOCA5AkYGhCxoA3WBdrw8EazMeWFzYjlrQ2ERZfqJACZbyOyrhCNoADaZ2PQzMGmyRGHOYY8gQIhrvIwGEUDNbg+46BjEF+Ahy/4OFlMK4ZO/SmIx4ipp4VyF7Rxn5lC6IpNhfoLR1uIlL5Pk3A1FihMRT4TJ/P/bexZ828e+5xJ5xcyhGxK3yQyjV930iYdLDr0gMq1xtPbWt2lqmd7zvwMeIAGJsCix8PgfdBgN/Eh0kHaQ3pYeotowLluo5KXxI7hLNPHmwu0Fs6/ORko4ntEiyPGIIdgiY8TABGGeDNwQY+TaGxFche0VbN88ElYWBScwILH4AAGKzB943BQsaAN/hdxmB9Mh9/8pTrGRX/pTy/hmfO6qALzO54ZPCQI/1srrdt/Pk+3wx+9+7d++7ef+JFk26+7UeHH/mVEg8ZeRMz5OITg/MkyWnw443B+mSePqPiZwakG47vAvB93vndtnnWi3WANt8cszA4AZjCgS7n49AMQAYAiQU4ZQEXAtm4ZLg0/IQ0IekCwXXkd9FLBn9gw/vlvY4yIRdn2dbJznQ+jO/TdIAnkiaOQ9yEicFAB3qdj0OzOij04RJcEVw4MNVZakPOkrGijS3unwaaMfwA348jYfyAwOcycKDL+b4DHyMI8Jvmpw8hxhaGQyTWgJ8PWk4Z3bFwyW67feb9jeF//YVL5TvfvXHjhvcs4Zo1b0+6cqqr27gUb76t/e23VuUzS6PGdO/e42/3/7srrrr22htu32/QAcUdJqcPhRPHwtOb2FUcSUIflhyGbFgDfv4gB7PQvwAAEABJREFUA6PieEi64J3FAfCQwPdpAscQY4AE5mMDn2bRIBtgOBYwtQOk882B6RJcF1RjQw4/eu3a1UFw+nV0yaSr3SX2zFPLhreM4pIMMjR8syzXUdEqcZb9sTRj+AG+H0fC+AGxb/st5hMZshFvXTgOMM7HoVk6mCt/5DMdO7mIh8sbr786flwrBwUuOOdMJuIxxEWEIxShQMaKtuAI2QQxghhrurDYsYAUy75nVEqA68o/0g1Jd5iXnOkxfi9Pmtb/duas9jvm/ORunzf/zLMm9O7Ve1b7ndY0Z/jJp9LkfcC+g/a/5IK21175Lc0mx/bbb3/gQYfe8L/unPSP/zRgjz0LUoPzxVlLGUIvMSkBZenqchbW4OBmhGGgawYOXRaAA+g1i2M8jg+/lwBgvTgGms7BLyOY2kBOHLM4Bprp4Ily3oWXPbb4oe9fe1UcmXIdEXyx97/st+ih+Zs/2nTwIUPgmxClXEdllMtOemAT8wcxfjMxPiYZYiQb2/nGmPVJYhzodT4OzUTQ5UCA83FoBmAuH/S6pu8bCZOOoh8ufloKuCeXLe3Tp+8hgw/zefn5K5Cloo19yfbK/9iIZEj+ID4XEpMEwcQUujwyMCqGzwc+zRSsWP70uK+P6HxwbmJMv/4DeLtGjPUO/vLhu/TqTa3GI6p95u38GOKKsi5ZFNhhhx2/8l+GTbv9rgkTL91p551h8oG/B/Lxg5z+ZqDLb+LDONCMQa8jA5+mD9bmYDwDYcxPtH6A83EIZqA5+DHoNViX+ViaWIATg4QO9Dofh2YM481aL74lx+IbmY/lQuBy4KJIDE65jnLFJ/JNQhZ3HRUtDiea013QcIbkD5fZd9yM5DHeMdZMtMQ4EOB8HJqJoMuBAOfj0KwoeHAU93CJV8UvmVVvvhHzYvJRIDNFGxdDvC8hY/iHzRAHeOcnOgTEID/B8FgfMAHoDZh8mowKwCgYszg+IIsGlVmv3ruuW7vGMvAx9Oihxzy38lnevfXdvb+RsrEC1LW8jLzplpkH/N1/jnsTGfZMChKHODI43X4T34Xh0AxgpNm4Cz4dDEkJ4IgsAAcQiQXmYOm1Jr4PeNf0fcigCeODXgd45+PQzAV6bRlYfBeGD+OaRTsFXUcD99q75w47uouu6EkbYGAR11ERR80p5kQHAyFj+DEMcYB3fqJDgENi2kTSDfEdPxLeb+LDZAX5XxS8rjvuhJNffGElJWBWjq7e1pmZoo3rJ9YOMkYcBsM1QCROcWAsGfIZS5gPhvhNfJhcoBcwFwFYfIBfFlCZUZ9ZqmnT7+JtAe8SNn34oTHVtFy3szse4dAS8eM5nYk8ZPu98zsWLsGJMa9z6dwFT8S8MSk5kSL92D/++ONnnlr23asve/n//Do90vVy7gBNrA9jsGWHHSZzdevWDWvN8s5CWkuIE8B4LDw2hq0n0cbBxTEkd7PjWBPrsuEbj+PIIpz8ryOeZCNOPZ2XCnwkLWKiLoekX0cz2u/nSBNx39xF8zqTryOuL66yxFGQs+ctxiZi5qyOPT//NylrLuI6SsmWq4tTHHdBxojDYDg0InHyBME+3CifxHd84NBlgDfHt5AxWKEDvc7HoVkrdHlRcC2wQ1jkNd+7acPGDffcPaNWS22AeTNTtJWuNTsmESmZiecqigNy8UQS7yORgQxAQmADXZc14YEji3befWctV8uOO+3ExcNP/4snnm2pIOkyvzqW31hjW0+0o4vtN8e0xKQxbWec2jpimPmBHdVyzOiRxwaka6bkdDokHjvK3PT9a66desWa1W8nBqSQzO6fOHyYlPiULsbm6qULkBm4GHwADxxZdsclZ64ukxMTo8tRRQcwV+JYeJDYlSfJluCSyec6umTS1f377/HY4ofY8HkmLyiMtCnX0YS20znSRHxj9PBRLcnXEdcXV1niKMixo07AJoJfgG+/9R+51o9oRV9HuXJWiGdXJ6LL6RiFMoRh8XESQZeBXnOwvk/TAd4HmX3Q5TfxYXKBnOkBuQbmw3N+0y8K+3sDFgBee+W3N9/W3nLK6HwyKyZWoFpFWzxzORg2YozExOyVRCQGJ5IMZy66sPg4ZQHZAAlBYkJ4QAxIDMiT5LLZuOG9Qw497MllS6lCbBTv28yRDRT46KNNix9eeN7/841/X7Y06Mq/aSeOeM4dPk5xYCwZgrEwgC4QdFkTHhADjCnI+qPwY5AtJmHgY8DHiMN8xo+HD5owPjhSv1k5P8/riDe4+w06gHe0uf4wrnIrrKvMZbmOSjwif+c4PzEnuygRicE+SVoGOgYfxjV9hy4fdNH0LU0H+Oog12rznD3Pi8Ky8Zpt/fp3jz1uuDVlC1Ug20UbR+v2tzkw5QL7mJx+Npox6QcU4ZMTkNaH5QkYwowv2vKC7f2NG1b88heWgc8rAwbsye8eLjljZFFgy5YtCHLV5RfecesNH37wAUwp4KxxHrGlJEkcS05Ach8WGTCEGR9bi4z5gCFDDGJiEgY+BnyMOMxn/Hj4oAnD4rHVR5fX0eQp11vF5n4dVX+RNZ+xvNfRXw6nKM/fPPhF5cg5iH0Y54SBzzlmWwcBhG1ztxp8mK1e9P/gYxAVkzDwASBJHpDlbXZ5UQTTER8wauapQOaLtjyPs9CwxF1uJLbQbPnEc1EZ/GBjsD5ZtG9/WzOu7RzLYI6Rxshu2PDev8y+++KJZ/2f3/yqdDXYKoDThwUpCeklLCUgpZcugz/cGKxP+j4zAgKAz1fIZ64YKXOlryq919IyXT5hFlyQtUvGLh8GmmMkzbbx5x9x1FDesTVzxVbe6whV6xYp24ztR2/iyuEBAUEvDDyIeboCEBMw1oT3QTZ4n6mEb/vfrgXym2MkTR+XTLq6d6/eiV1+mPxcCmS+aGNH+sh1nAHPEBhsrt0c8EQCI7H4gAw+YGIQEJMw8BUC32XIf833btqlV29+7uN3LFxif0CwYvnTN1w3hbdrkKBX710vv/RcSFbCWzf7xwEjTxtDE0vAzFkde++zH81mwJYtn774wspLLmj7yT0/+uSTTwo95CAe9QBbBdCFBTCAZi7Q64Mwv2k+ZFnAeoBLhW/5nXVdZXHIH6MsmSuUhLdlSHHbnff0778HwKFJQcZ0XDIp19Fx2/6X0KjbiDe4C5CxDY/yXkflkstOhLN5piWeSCxbFycAPEjscpH0EgMcgw/ggSN9Bx4QA3y+OJ8kZIvHQtLlEAckMsU9XHj6cAn4c41tPZGLKHEKkV0qkPmijc3no8sDtgCGsIew1sxliTEQCVwYPrCugITPB26Ucywb1jE4NA34eeLiiWcHC2gdMazzz//lNi4VLhgLGD+ule+AltbnrRfrB1hYo9p1a1ZPv+WGyZPOL+IfHPia2MnCoh7wu/BhAL0GGANNeHxslyAsAMMNPm8M1iedzyzOdw5kANdVCSfX2hLnYmHEB0iMNJJIhphfnOU9GRkCuD9Q868X/zLxeTfWvwCLW0xWRpXrOir78bpzYU6e+QlO2Uj0gi5TEQNcGD5wzVwOMSBXb558yuLJQH4fMF2iuIcLTx8uATcXSbqcqJkDujz27BVtnHt3VL5vZMwYH9t8IokxxMNhUrroLQiWylkb65rmGClbdgWoXP9x0vmPLX6o9Mx2prApqeg1uBiazi/UYawPG+4z+EaW3eafOTESEuS/KoJjBMMJMMY51sTGDKRQRgXKeB2Vvir/dPu+ZY4Z42Obf6SNLTS+oqOKW4wtSbZuFche0Va3UmphUkAKSIEGVUCHJQWkQF0ooKKtLk6DFiEFpIAUkAJSQApIgXQFSi3a+D4N0udQb5MrcO3UK/y/+ymnGrXLxbYHtZtfMzedAp0Pzh3beiK2kY68IW8OjXSC6vxYmnD/lFq01fkZ1fKkgBSQAlJACkgBKZCmQHb6VLRl51xppVJACkgBKSAFpEATK6CirYlPvg5dCkiB+lZAq5MCUkAK+AqoaPPVkC8FpIAUkAJSQApIgTpVoNSibdr0u0CdHpyWVSkFisxr/7sL9p+VLzJFjYZNnnJ92f/3ISqRs0byaNraKJCVC6oS66xEztqcRc2ahwI63U6kUos2l0iOFJACdaLAgoeX+SsJmn5Xnn4+GfKJCaYrYkiQQU0pUIQCuTZeCk9Xl4hXwpA8yTjMMYlJXG/GHS2/YAVUtBUsmQZIgQZTwD0VcHxU+jBHnjSU6So9i/JLgUCBIjYeQwykMgcb+DQDEFO1Hc5EPmwlPoNvpGymFVDRlunT1/iL32677b5+5rduvvVHe++zX+MfbTmOkFszj4qCMhHPKBuCb7BmeS2zBCB/wFgTvpbQ3M2nABuPnZ/ruOk1EGAONvBpxkjJGQeXyDCXwc9jDNYn5WdXgTot2nhCz5zVMXnK9dlVtqCVt5wyumPhkrL/sRcJkRExC1pM/QQfd8LJP5w17/Svn73rZz5TP6uq55XwIHF3Z3wDCzbHLM38wZBcwXT5IMxv4sPEYHldIh4lRgqUrgB70oFszjcnYGg6xDuWrkQS3mA5A0sXDANxBClQnAJ1WrRdMulqjueeu2dgAdUbe93BL0Ss3HFdlD4wDHGwP2C0gLjXhRXqWNrEhNOm35VrOtbGEOslLJ9JGTK74xFst27dLB6fJBRk1kyxjz/6U3q/890bM1e3HX7kV6b/870TL7r8c3135xCEfBRgX9nzAId4fIPvw9B0sEiaPu9I+HQwyoFI5+PQDEBax+PHvcbQ5cKMsQ0PD7gWuPSMl5UCBSnAvsoffmY2XgB6A4YmpINNRNMcszQBkQEgywKX1s+WSPoBuXwuNC43njVcgEEMDy9LG/T6T+qgK8igZtEK1GPRxokfMGDPO2698Y3XX3UHtnbt6gvOOdO2/sYN7918W7vbSZs/2vTDGbdY16LOed+ecBEZbCAx+C++sNJ6L7mg7djjhrMXrbdoy5addOVUf3kuFV29eu9qS12x/OlxbeexBuvFockKWcw1V13KMRJsXRWyrBAZe/fqfeZZEyo0RdnT7jfogO/f9IMrv/M/Bu61b/fu3cuev4ETsq8KPTqGcPMtdFRx8cxlA5nR942EgcfHwTpw/XJF21VD1w3XTRnXdk7mfoS4w5FTcwXYZj6C9dAVMDTZeAFykfApILmfh0hr4hgIiEFXTMLA+7BUzloATWKwBnxDl5ZnUxHPuGunXmETYYPHX5czKiBPBequaGs5ZTRF1WOLH+KU5zqGm2/47vr174449fT43t0+8/ZnnlpGBvIw/OBDhlDSLXpoPj6giLl44tkpmYnpEjxFiBnbeuIf//gHHB+8/aLUWDj/fiaC500h6zz2uOH4LJUFr3rzNVZIkzVwjATbOmEqBJvICVKhWcqSdsAee/7j1dfdOO2fv/DFg7bbbruy5GzCJNysuWNiHRDB+ebA1AosgOXZ7OZjrQnvfGO4Oti6XNF21UCyn7mE7fqiKUiBIhRgpxnc2GDjOd53iHGAdz4OzVyg1/3iZEAAABAASURBVIFJ8XNFwhMQI4Wnq0uQMH3SOENxz7ggD49dHr48ggNezRIVqLuijXNMoWPf9XIdG7fs1175bZ8+fQ8ZfFgc8/xzyyHJgwU9d9hx4F5745QL/JjgsZGYbc/PD2Txz6141npZHovkjRoPnr679+eN1/Mrt67Neg8+dEjPnj3dOo00y68cLjP/K7DxseXqItJHPAoxWZXVjnGGemB22nnn8y6cdOsP7jny6P+CJvWwpIyugZ1gK+dOHQDeMfgOkPhuIH7+YJQDo5yPQzMRNh1dxJiPxYfp1q0bvjlmuTq473P3t6Zv+YHEKH+321UD74fJlwJlVID9GSM9v8UTg4OtBLgQYjCRIwOfZjqKe8Yl5nz7rVWO5znI91a3Kl2qTpmCnPoq2ngdte+g/fn6SVmWfhhsBZ7u/foNiMNWvfkGN/p+/bd2cbvH5/MKN/Q4suwMk7rFsyO/fsa3nvz5v1rVaIXjunVrmJTD5GHDizq++TIExgdL5Q0cH3zHj2vtUgeuLu4FhgUPzHl/4wa+hwajaFLj8tGWef2J6sT/0oGHTrv9rhNOGrHTTjvVyZIyugzuhuyEai6e6RyY1/k4NFMQLJV4mDieq2PDxg3vvrM27uLdGxu+f/897NM/lxsf1mHg42AxUsBXgM1m8Ml8fBsV2HwGFh3DXLmuDpeTgAB0wZjF8QFZCrgkcz3jgrTj2s7h4uWVgfE8fWBuuG6KLYbX58NbRvEq3Xpl81egvoq2+HVU/keSGMnHFL5jvvrKy1tv6A8vo8yn2E+MTCPz62NTUhhZLC/Ajh56zOWXnrv+d+8YQ31J9YbPAr5/0w+eXLb0h3feQtPHzrvsQjHHmzlKsc4H57ouBlJ3cvUa8ClYXa85pD3uhJP55MohG+Nbalze+fHmzyfrxP/ViyunTP7vXMMff/xxypL+8xcP4vSZArGd0X5/TBpz39xF8zqXmB/YeZ1L5y54IiBd0895xFFDU9ZWdBc1x2133mMzpqyzY+GS9nvnW1hsqfJZADx3QxwDzQDwjsH3Ae+P9bvK7jMXiKeDgQf5z0h9xrZh51OxsfnxYfIfrsgGUGDkaWPYMwb/gjXGWe6r3J/d8bLZDI7J07FRgc1zrIUxllXhY/FxygvSAsuMxQflmgINU55xNgvPPmYEvHpwfylEF+8O+ELlHk/2QYzHIl1CQQrUV9HG6ygKlDwPYPPmzfbiKjF+3dqt77Ssi73C9uXdFcnZUhWq7tmU/ARhRh6i/Bxx78l41cfLP5aK85/+7kuTrpz6k3t/5J4u/jqPP3EEpRW9bmeTDTCQxXMIBnyOHd4HP2LWrHnbpfW76t9fs/pt6tQ7b/+fv3v3TzVuvOZfv/QC9bcpENsJbafHpDHfGD18VMsw8wM7quWY0SOPDUjX9HNSEMRLKp3hVav9mxUmTVln64hhbWecSkwi2N6shC6sA80AdDkG38C9FZhfactEgDUwEU4MeHqNx88HbJtVb77Gk5vf9Pf8+R+b5zNQMY2hAO9W2TMG/4I1xll3Ny7xqG1zBraAnAWGMhGHwCAsPk4KCABEAheGD+CBI4t20p9xlpZLkhnBrPY7xrWdxwPXeCw/rliGIfHVAzFClwrUV9FGcUOB0uWiCdjz8wOJJB4/gFV+vFsK+M4H57KfGFW5v+6iAuOVHtaeoyyAdWKBLfWww4/i/TArgbHXijgOjz6ycP36d/moyssDR+bjcDHwfm5W+50pwRy4rSElprZdvCY8d/zYxQ8v/OijTbVdSWPMzs2xywPh3gpcWOz7jAtzDlM4QDofh2YAUgEjcWL4XeZzKfXu1ZsrxZqxdT/908PigWKaWQH2p6FQEeJNC1NEEmYvYmCuicgGSAgSY+ABMSAxIH+SSzLXMy5IwmOOtw8HHnSoPc54SPHjil+/rAQkvnoIMqiZqEB9FW3vvrOWX8wHHzokca2OZBOwFXixxJ5wpHOoyShQVvzyF46pmkOlyDswe/HLpDxR9h20v63TDs18usDgLx/Omz8XDPPB++/fceuNOOddeBljcfJByymj+TYUv5/zx1I7Iixr8Mk69D/84IM7br3hhv9xNa9PtmzZUocrzNCSuDPmeY/2D4oh+Q8k0oEkzsehCciGLRpcHVwjw08+NVeGSyZdTbn2v278J7Y3L5tzhYmXAr4C7E+DI2k6P8VhP8fIFU9kYlrjsbkGGk+APxwfxroCSxeg14fFBAxhxhdtU55xiTm5MO25wzPo/Y0bFv35v+SQGCwyHwXqq2jj7etrr/yWl0aUZblWTxdfGOlNfLHEp0l+B/DOxuq579/0A2oagg3c/XkGPPHYImtiyTa745GOhUv8MPji8PijP+VV2Yg//7dIzjxrAp87bToO7cllS1kbPzhIzrxUWpQm/Byh6cCyKb8Yled/EZfajulefGFlkMclxCGG2pFPt6yBZv3jF0///MJzx/3L7Ls3bHiv/lfbkCvk5s7tPv3QiEkJSO9NGeh3sau5Ro44aqhdNXRx4XCNs6XxIbmguNiX/mzxwvn3D9xrX/9bDAGCFCivAuzqGOlTBNcRTTIwBIuPkwi6CAi6YOAD0m8SYOiS9AMK8lOecUEeLk+uXJ569tyh2uPhy3cwwnja8uU0/stsuoQuFaivoo3ler+taf0F7k+2r/neTdQoY1tPpL6xbrYCH8jZzaBX763/YVv3p13Tb72BmgbewPs5vpDyJLCBWH4E8FOA3cP7OZr5gA1HkUdCdiQDbWoeJIxld/7T1Zfh2F+XB9Oxqq1/gbHtL2ftKNxXVIY4sLxFnfM4XipOHlGOT3SoC4lkJazHwNpYoR/8teP/gSrQakefr2f/k08++ck9P7rq8gt/89ILW7Z8Ws9Lree1cQdneWwMbD4g0oYQbA4MftlB2hiJs3CNuKuGIfxg49caFxr1GV9bXn3lZS4rBnLVcEPgQoCnKUiBdAXYS0FAzFgAvIGmOYH1eXwDMXYFYZ3vHIuxLvN9G4T5XbmG+DGl+zxBeI6wDC6o/J9x/JSaOauDUQbeSlxz1aV2ebIkHH6A2eOSio1nHC/e4IVCFai7os1uvpQ7fr1CpcVmdaDpjpP41hF/+TPz4A9OubnDuIF+qWcZCOCnAD6f6rH5IJjRkvNosbEkdDPG07FxLR4bHwW9lgSHABvOdDhY68Lic8jE4JOESB90EUCXARm5eHie+aR11b/lkXz5pedOv+WGdWtW1/9q63aFbA9uo9hcK7SuxBi6Evk4lUUS7CMOM4bgGNYVW7a6C+ZaYDMTYzvfXXeOgccXpICnQILLjmKjYl0ffsBYF3z+sCFYhmAN5udKDm9hWHxg8TQTQS8xIO6FNPhdxmB9Mt3nYcFzhIl8uGst1zPO5xnoLlU3FxngAcm5qAnAul45eSpQd0Ub677n7hm8/eInNQUHzYqCHwdHDz2Gkr8hv7VzdOddeBliImlFZaxocr5//eOk87kjVHSWhknOPTE+lkQyCMsVk4sPhtMkMgZ8AGICxpq5eOuVlQJlUcBtM+e4tDHjukp3ciX3eXzQ5VzEgCAMxof1+gy+kbKZVqAeizYez3xkpNQYnvsPkMsiOl9S+I5JKl7n2M93/EYCH0Y5HMREUhyhvhTQaqSAFJACUkAKFKJAPRZtrJ8ig4+Mlf7SQX5+fDAR0zFp44GXzw18dI13vnREUkAKSAEpIAVSFEgo2lKi4y6+UoOYFyMFYgV4nZnRv2Ogvi97+VuJnLHmYhpYgaxcUJVYZyVyNvBWyfqh6XS7M1hq0eYSyZECUkAKSAEp4BSQIwWkQNkVUNFWdkmVUApIASkgBaSAFJAC5VdARVv5NVXG+lZAq5MCUkAKSAEpkEkFVLRl8rRp0VJACkgBKSAFpEDtFKjNzKUWbdOm3wVqs3bNmjUFBg85cnbHI23jz6//hbOrQXnXSUJQ3pzK1lQKtJwymisIW+dHzQrLvs5K5KxzGbU8FOCeCXAEU6DUos2yyEoBKVATBQr6D50nrtAymE0MSCQLjSdJEUMYJRSsgAZIgcor4F/Ovl/5mZt9BhVtzb4DdPwNowC3zhjB0REQMNYcedLQXF0WULqtwhSlL1IZpIAUKFQBXdqFKlZKvIq2UtTT2AIUUGilFeDWGSOYlIBKF2duRiYKQFfAWBNekAJSQApIgS4VUNHWpUQKkAINqwA1E8eGBc7BBzR9wPigy2/iw8SgRuwS8SgxUkAKmALTpt81c1bH3vvsZ83iLElAcWMTR3G9c137XUHT72LxHEIZ/5TZT96Evoq2JjzpOuTMK8BN08CROAc/HwS3V5oGxppjlmYA483SZY5ZmgFYFV1G4pvjrGNwXJjr5f4Ob+B2z03fdcmRAgUpYP/4ib3EpnIDW04Z3bFwCaQBH8b1mkO89WIL2oQ2MB7CNoYkG5jd8QgLs4l8ni5iYKyrLHbylOsHDNhzVvudfjZqOOYyEOB3mc/yWCQBHI4xsaU3F/zgN15/9cllS0eeNiYllR8vP10BFW3p+qhXCtSjAhQ6BhZnTq67JzwxAYw0G3SVq8mqLBWz+L6RMPD4OFgfPE6Gt4z64Yxb6AIL598/8cJJfkC9+lpXPSow+MuHb9i4YdWbrx986BB/fZs/2uT22KLOed+ecJFfuxS3Ca3QGXL40WvXrvbnwqcO+853b9y44T22NFiz5u1JV04lni5qmvHjWiHBBeecCUMk8TilgzqJWX5y749WLH/aZeNIe/XelbmYccEDc444aihhrtec4Sefukuv3uYH1q5cSIbnAr0+2mfe/sxTy4474WQW4/Pyi1BARVsRommIFKgLBdzdk9X4d8+4CROAsQyBxDEEPs3SQWabhVTmY/EBvPNpGnh47DfoAB6inQ/ONQbn8kvPNV9WChSqALUapdLyXzzJ26ZcFYOVFPTa+7biNiFl1nkXXvbY4oe+f+1V8SLPPGtC71693esuc4affGoQSQHHS6k+ffoeMviwoKuIJkdEnUS5xkXkD/f/V48ff/SnlJio5AegA2P/benj72/c4PP5+PFFbaPuuXsG1fO4tnOsKVu0AiraipYuIwO1zEZXINddMv24qZksAMdA0xwsfgwmcqDX+Tg0E+FSEWM+Ft+C8c1xlocHjxAeJI7xHZ6LfDxiuAEfxg+QLwV8Bag8qNWeX7l8xS9/Ac9bN2winn9uOfzBh2x9G5e+CQlLBPUWL8yo/xJ7+/UfwNs16ifrZSW8x9p30P6JG5i3gKvefMMisRSdXzv+H2zPJ37JJSYRzAK/6KH52HTw4s1fybHHDV+//l0q3XgUy/AvW5pxTCKDPtSjA/fal4owMUBkngqoaMtTKIVJgfpSgNul3T2x+CzOLI4haBqJhWcITqFglANjnY9DMwXBjMTDxPE8Nnh48Iji/h73wlwy6WqsfdYhCc/IXJGECVLAqhYqNqolaiaqsVyaUCRRKlFadbkJc2VI4S3nurVrLIavk0cPPea5lc/y7q3v7v2xkWMoAAAQAElEQVSNNEuVybuxF19YyYKNwfLumXjb9qvefG3EqaeTEL5LcLy83Hr3nbUpkSyAZfgXHS8aKa0Wzr//D3/4/V8N7NaNy5brLiDzb3Iitorcb0D+QxQZK1CGoo0txbk0zJ632JzY3jd30bzOv/ztpx/Ar4f2e+f7jO9XOees2Z1zHnjUX4Dv/3hOp9/0/ZR1Fp0TWRDHn8X58zqXzl3whGsGTso6a5jzmu/dxO/LeBc2D1OWiyXPn6rcXtkVXWpLjIFIc7D4ZQGpACsJssHAg4BPafKgSi/pUsaqqzEU6LnDjt+ecBHbBnBj5FaGk4hp0+/ikKlaqNWsAKJm4q0bVRF8lWGFkU3KwigN+b2x6cMPjcGyt3ltzIFwh6TM4ksipAPvnv/p6svs98kTjy2ixsrn4yk5uV5ee+W3NtBlCxy+V6IqaY1nFAUipWHnn/8+wXizXLbmOAvDsl0TH8Y1A4fykaPjpAS8mgUpUGrRdvHEszlJDmNHneD8wPnG6OGjWoYFpDVbRwxrO+NU82Nb5ZzjxraMOe34eBnGfHNMizmxTVln0TmRBXHiuWBGtRwzeuSxOIlIWWfNc+b6glDQxs1o8KuvvOzOV8qGSb9YuJ8GN0dyBkyiPsSAoIuxBnhzsPglgomApcKJQX56jcfvEjx7+LxiVS9POJ4uNkS2eRTgPY371wPcGLmVsYUSwYOJ+owqjVrN9OEDKNWJvXszJrYuOO4qhbFiZceddmLfMgVrs2xUMHThs7cp4+xAKLNuvq295ZTR8DF4IwjZL4+XVX6lyJBETJ5yPRcURS23FAsI/vbOSNm6UqDUoq2uDkaLkQJNogD393yOlDCqIhdJE7hmoQ6pHBjrfByaAZgIGIkTw+8yn0cXn2l4PZCrIKPcJw+P7T59+t525z2zvf9ugmWQlQJOAeoz3usfcdTW/6kPtiiv6Hr27JnrNc/AvfampHv7rVVdbkKXP3/Hch5y6GH86rh26hU2kPdt5gSW12zr17977HHDA96atk7z0y3lIEVhSgwVG+LwM9ItiTL3wIMODT7OpmQorouytbiBGmUKqGgzHcpulVAKVE8BnklUM5WejykcmMv5ODQBy8CWgudXLu/ff4+vHf8PKUl4K8BbFko3nrI8mFMi1dXMClCf8WHR/hSMLQqeeWoZ794oTWJZKJJ4jbdi279XyGcTxhnSGSqV9zdusPxEsgZWwks16jmaMYiPSRh7x7Zu3Z/+PA4mF8jMT6Bc/9ahbfz5VrG5137k4Wryy1y+1dIcedoYrmviCUgHYYicEmMv/6iMU2LU1aUCKtq6lEgBUqDeFUi5V6Z02VFxqzXQNMcsTR/pedJ7/Tzp/uPb/gMEw1tGuc9DON+/6QfxqPyfXvFYMQ2vAC9reWUbVEWUC1QhlCbB4U+bfhdfCR9b/BAfCunKfxMSnCfsn3CO+/N/8MIcI4MMl0y6unev3l7XX/op9Y474eRcf3D2l7g/e1SfvJOO/wCOa4pLjHdsfsXGIHuTzbVsuOaqSyk0FzwwhyZdBCSC3kQ+JlGeH1r5VJzxWDFOARVtTgo5UiDzClBvFXoM3HMTUWielHhWFSMxntcD48e18uzkY5YNGXHq6dNvvYFgnlh8DzUSy1NnVvsdvHWjS5ACgQJUKtQrVGk+z4suqhDewEFSPbg9RnnHCzlXl6RsQgamgA+O7Ew+3PO2GODQtHdUbOkbrpsyYMCeMIAZL7/0XEiyUUJ1eP/zDDBjW0+0LnxeublUvPri22VQaRGTCxwvrw95iegHUM5yTfGlmDqVlTjYOv3IdN8NdA7xzseh6YN5U/6Jgx8pP10BFW3p+qhXCmRJAcovbpfYlEWn96YM9LtGnvSnPxViOgc/wPeZMYYfEPjXTr3CxVPD8RAlgMcYDzPH84VUFRuyCIkKsDfYIa4OsxjbQhQ91uv2kttjFmY2cRNaVy7rD3HJ3RpsduP9GYPFsDw/f5CTpt+b7jMjrw8H/vV/Go2ridltGb5163Q5Gc4VF/MW4I9N9C3MWf0TBydFiY6KthIF1HApUEsFuF0G08dMEOA3Cwr2B+IzNgZ8AGICxpq5eOuVlQJSoHQFKLn4nDqu7Tze55WezWUo9OLlNd4RRw2lgqQQdEnkFKdAoxVtxamgUVJACkgBKSAFGk8BXt1RtwUfSat5mPZhdMEDc6ggqzlvo86loq1Rz6yOSwpIASkgBYpUoJGGUbeBWh2RfZBVxVYu/VW0lUtJ5WkoBbjHgfIeEglBeXMqW1Mp0Png3LGtJ2Lr/KhZYdnXWYmcdS6jlocC3DMBjmAKqGgzHWSlQCYU0CKlgBSQAlKgeRVQ0da8515HLgWkgBSQAlJACmRIgTIVbRk6Yi1VCkgBKSAFpIAUkAIZVEBFWwZPmpZcUwUmT7l+5qyOvffZr6ar0OSNoEDLKaNndzyCrfODYYVlX6f915Lbxp//V8euRkMrUImN1NCCJRycirYEUURJASkgBaSAFChRgQUPL3MZcvkuwDl+pJExY7xsEyqgoq0JT7oOuWAFNEAKSAEpIAWkQM0VUNFW81OgBUgBKSAFpEDDKsB7MsDhYQ3OxxGaSoHSD1ZFW+kaKoMUkAJSQApIgWQFRp40FNCHNTgfJwVW4WGJwTrQFJpWARVtTXvqdeBSQApIAVMgA7bllNEdC5e4f7hgTfdPguBdTWOO60o/tpR/V0SXpXI2yGlrYFU4/iwuHtJ8HMo1rMH3jUm0hBnoNQeLXxBMmWDlZNh7n/0gbXmzOx4ZPORISIN/4PHRWYxsrRRQ0VYr5TWvFJACUkAKFKMABceIU09fv/7df7r6sjdef9VSbN68+YczbqGsMYwf1+q6LKBQe+3UK0h1zVWXvr9xw4IH5uAHOQ8+ZMia1W+xDBw/OZEGSHOsNgosvT5cL6T5OKWAOoxqbMjhR69duzrIg4Df+e6NGze8Z8tbs+btSVdOJd7C7MCta8Xyp8e1nRdUpRYmWxMFVLTVRHZNmp8CipICUkAKRAqcedaE3r1633HrjSWWZVHiAgjqnn0H7f/Wf7z52iu/xaEZDKbw8hmrgZz1u8z3u8w3vjjLes678LLHFj/0/WuvijOYgLPa77Quc4affKo1fbvoofmbP9oUVKV+gPwqK6CircqCazopIAWkgBQoXgHe+vBOiHKEl0DFZyl55CGDD6NwfP655QCHZmJKV7rh+EgMLiNJOct7wVz/M+39+g/g7ZoTcPCXD9+lV+/E0tOW9PZbq8wxO236XXYsmfl4autuCKuirSFOow5CCkgBKdAECvT53O5fP+NbVBu5ypGqacDLpw0bNzy34lmAQ9OfmpqGt2UwWHxz8B1gugQDDUSagzUfWzR4Cder967r1q6xDJOnXH/00GOeW/kspWff3fsb6ey4tnM4uscf/akxjJ05q2PAgD35asyxXHJB2+FHfgXSemWroICKtiqIrCkaTYH+/fe47c57uIGC++Yumte5BCcGP0Pb750f88bMnrfYnNhWIues2Z1zHng0nsuYH8/pNCe2KessOieyIE48F8y8zqVzFzyBk4iUdRadc0b7/YlzQaaciPR15pnz2xMu6rnDjo12eRRyPCNPG4POhpSTy6sdy/r3x3yNV0TXTr3Cmr7t2bMneloqLLWI31tenzKF91J8GOWFFti44T2akImzUNzAsyQfMF2CgQYizXEWpmhQmVGf2XCE5a0b7+Q2ffihMWZRz1Y7cK99F86/n2M0nu+qffr0/cm9P6JuhoG/+sqLsfhCdRRQ0VYdnTVL4yjAA8PdOnG+MXr4qJZhODFaRwxrO+PUmDdm7KgTzIltJXKOG9sy5rTj47mM+eaYFnNim7JOPye/vN3fa1uSlJzIgjgWFthRLceMHnlsQLpmJXJOaDvd5Q+clBORvs78c6JD54NzG+fyyPtIeOqPbT3RFzzl5F488WxL/G9LH+c1DyWFNX0b/EMErlPXS7yVIGZpuq7iHD6GUru4j4bPr1xOE9KyMQvHZb5Zmgaa5mDx84Flw+YTnE/Mu++s5eXZjjvtxDsz3rc5bSHpsgyoxwrBrPY7xrWd5xSjwlu//l1eLlqYbPUVUNFWfc3rf0atUApIASlQjwqs/907jy1+6IijhraNPz//9bkShCoE0Mx/bGIkH0N5sedeE+LQhLRgpjDHLPWWA4zzcWgmgi6Q2FU6yYsxXg0ecuhhTy5b6qSgGkvMzC8KyusDDzp0sPffBEmMFFkdBVS0VUdnzSIFpIAUkAJlUKB95u3PPLVseMuollNGlyFd4Sn4DMrH0FdfeZnizIEmJF1xPhdDF75ZHIDvQJVmgDfQBYOPg8XHKQt4wcZ78RW//IVloyDj/aV97TUmsO4lHAP5tMoH1iAgR1N0+RVQ0VZ+TZVRCkgBKSAFKqfAPXfP4CPd18/4FtVG5WbJlZmShcKFT6J+ANWM/4XU7zKfkovCCx+LjxMAHsYsDiDMb+LDwJeORQ/NJ8m4tnOwwBwjafrgjSbvNXknx/s5eIs578LLrDzFfve6aVi6hOoooKKtOjprFikgBepGAS0k4wpQQNxx640chP+fhKVZHPx/V0RVNG36XZZn8pTraV7zvZt26dWbD6D4M2d1UKAM/vLhPXfYcd26P/3rSwt+/rnlOO4LKb4PxlJyOQYfxjWdA+98Avym8TDw5ndpbf233XkPBwhwGEsRxkC+eN5w3RTersGAXr13vfzScyHp4gA5TEjDcSecfM1Vl/J2ky5ADJE4lu3m29p/8fTPOR0wQnUUUNFWHZ01ixSQAlJAChSvQOeDc1tHDPOrh7GtJwLKCJLC00sMfkG4dtv/7AHFkIP7w/y4a/y2/5WFxLmYmgUwJJ6d6ofkAQ8DDwLemvAEmB9YeHoDMrHJYggOwOItGN1Qz3rtuIynAqNpPJYYIq3LrB/AIXPgxstWRwEVbdXROa9ZFCQFpIAUkAINowBFD8diFicAPAhIa+bi8+m1GNlGVUBFW6OeWR2XFJACUkAKNKMCOuYGVkBFWwOfXB2aFJACUkAKSAEp0DgKqGhrnHOpI5ECNVRgxfKnx7ae6P5iJmkl4rKqQOeDczm52KwegNZdHwqwhbSRSjwVKtpKFFDDpYAUkAJSQApIASlQDQVUtHXrVg2dNYcUkAJSQApIASkgBUpSQEVbSfJpsBSQAlJACkiBrQro/0mByiugoq3yGmsGKSAFpIAUkAJSQAqUrICKtpIlVAIpUN8K1MPqpk2/C9TDSrSGOlFg8JAjZ3c8Yv+B/jpZkpaRXQW4vYDsrj//latoy18rRUoBKSAFpIAUkAJSoGYK1LBoq9kxa2IpIAWkgBSQAlJACmROARVtmTtlWrAUkAJSQAo4BeRIgSZSQEVbE51sHaoUkAJSQApIASmQXQVUtGX33Gnl9a2AVicFpIAUkAJSoKwKqGgrq5xKJgWkgBSQAlJACkiBcinw13lUtP21HlVpTbxo0uAhR1ZlKk0iOhPG1AAAEABJREFUBaSAFJACUkAKNIgCKtqqfSJbThk97NiThp98arUn1nxSQApIgfIpoExSQApUXwEVbdXW/Njjhvfs2fPAgw7Vy7ZqS6/5pIAUkAJSQApkWQEVbVU9e7xmG7jXvky5S6/eetmGDhWAUkoBKZAZBUaeNmbBw8sMP57TaU5sZ89bHJPGzJrdOeeBR82PbZVztt87v2PhkngZMPM6l85d8AROIlLWWXTOGe33J84Fed/cRfM6i1lncTnRhKNg3kSknNyUdQY59xt0QGY2fWkLVdFWmn4FjrbXbDZIL9tMB1kpIAWaUIEVy58e23riyJOGOnxzTIvzA2fsqBMCxjXHjW0Zc9rxrhk4Vc7ZdsaprSOGBWuw5qiWY0aPPNb82PrrfPWVl4GLKTrnhLbTXZLA+cbo4aNaillncTnRhKMI1uCaKSc3ZZ1xzosnnl3W66hOk6loq96JaTlltL1msyn1ss10kJUCUkAKSAEpIAXyUUBFWz4qlSfGf81mGfWyzXSQlQJSIF8FFCcFpEATK6CirUonP3jNZrPysm1c2znmy0oBKSAFpIAUkAJSIEUBFW0p4pSta+999htx6uk9e/aMM/LBlHou5jPHaMFSQApIASkgBaRARRVQ0VZRef+U/I3XXx0/rtX93aXvtI4Y1vng3D/F6f+TAlJACkgBKdDECujQ0xVQ0Zauj3qlgBSQAlJACkgBKVAXCqhoq4vToEVIASlQ3wpodVJACkiB2iugoq3250ArkAJSQApIASkgBaRAlwqoaOtSovoO0OqkQBYUuHji2SALK9UapUCNFeBKATVehKavVwVUtNXrmdG6pIAUkAJSQApURwHNkhEFVLRl5ERpmVJACkgBKSAFpEBzK6CirbnPv45eCtS3AlqdFJACUkAKOAVUtDkpquQMHnLk7I5H2safX6X5NI0UkAJSQArUWoGWU0Zz58fWeiGaP9sKqGgr7vzVZtSCh5cFE8dMEBA0Ld5s0BU084kJhtAMRgVNAnIhiAyauUaJlwJSQApIgeIUiG+zMeNnTu/1I+VXTgEVbZXTthqZR540NOVCytWVPqoa6+5qjnxWyNHlQlfp1S8FpIAUqAcFarAGbpvBrDETBMRNhiQijhRTXgVUtJVXz/rKlk/pk8+KS7k4/bFdzhUEB814OAcYIw4TIwWkgBSQAqYA90xureZj8WFwCgWjAhSaQfFFKKCirQjR6mIIV5qB1ZhjlmYuEEAXFjgHH9BMgV2ZBJiDxe8SpCXSISXeIglwwbFDr1A9Bepsprbx53csXFLE3wNNnnI9u8uAX2eHpeVIgfIowN6eOatj7332yzMdN1gX6fuQdrGYpSnUmwIq2urtjCSsx64fLH1YgMOVlgi6fBATNGEAJNaBZilgSQaS4JglOY4B0m8aKZtFBexf0kybfleweB4bszseoTfga9u8duoVbLxrrrr0/Y0barsSzS4FClKAS4kLijunD369xEmIPPCgQ59ctvSN11+1Xqo3ajgbGPzaMdIsweZgzediMdDEwRoIAPhYgANwAkAKlVYgY0VbpeWoz/xcPAaW5xx8LhiswfeNcda6zDoyH4chhi6DbVVYIrGMMotjgHcOvg/4oAkTwA/w/SDMmn6A/LIrsGL502vWvD1gwJ48KlxyHhL7Dtofnl5HypECUqBoBbiUxraeyI30maeWrV27+oJzzsRvn3l7nHDwlw+HXPHLX2ABF+b3b/rBxg3vEQ/I8+0JF7lqDwYQFlvIXCAY0IsFOADHEPg0hcopoKKtctqWOTMViZ+RJheMY/BhXDNw6CIAEscQ+DQN1oulyRADfkFglMXjAHwswOkShMVIHBWHOSYxXmS5FHh+5fJdevW2R4XlPGTwYX369IW3pqwUqHMFGmZ5/F46eugxL76wkuLMDmpc2zkbNm64+YbvWvOeu2dQ8xFDpDHc3rlVmo/Fh8ERMqGAirZMnKa/LNKuLixX2l/YbR4M/DY3NHQZhWOgaQ4W34GmwTGFOrnWkJiHYKZL7MpFMiR/5EoivhQF+E3P18aDDx3ikhx8yJDNH22Cd0yi03LKaD7WuB/9vBLgAxDfVQnmicIHHXxg55cuAugykH/Llm6Q1kuY8VgbazzW76I3BeR3CRnoFsY64cd8o40lwYP4czAMPOCIiHez+IsJulyMHClQLgX4vdS7V+/nn1tuCdnSvAV/7ZXfuk+lODSJ6bt7f2LYsfEtF8Z4LDHpcDE4BuLNMUtTqJwCKtoqp205M3MxcF2REet8HBiD+fRa01n4mHS95XWYi4T5T0d8HAwZg7QODHGAdH6iQ0CmkI3F8pueL6E8G3hCsGLKlHJ9Gz3iqKH9+g/gVF5z1aVk5p0B1sC7vbO+dd5P7v0RvQsemMPUrlSaeOGkhfPvhwd0kcSVXzY20bJs8t9w3RRGAT5CDW8Z5XL23GHHsWe0PblsKV3k3G/QAS4nAynmOHwWSe8lF7QdfuRXIJmFVfFlimckPFjUOW9c23kuJwGCFCivAsceN5z3as+teNbSDtxrb7au+c6+/dYqSLpg2JZYwG3W+TR9P+ii18HvYoiBXnPM0hQqp4CKtsppW6nMXBhFp+aSM5DBHCx+CroMYCwxoNCFJcZDxmCKGEXMGCcRU5wCz3tfSPmtX65vo6++8vLFE89mSVYX9uq9qxVDMJs3b57Vfkfng3PxH3/0p+vXv8vrPXxw+aXnGo/P2z7eAu75+YH46eANBHMxkYU9v+1dRb9+A6yJpVazPyEKcp551gSOl/LRxpLn6isvxjJk+Mmn8gTlgxQ+CNYJI0iBMirAjwR+PPDTwrafy0yV5vzA4bZpgDcHi58OYgAx3JyxQg0VyK9oq+ECNXW3blwtiZcKJF0ohMXH8QEJfAafMEPg00wEGYhP7PJJYoBjGAVoYkHg0CwXSJ6IcuVXnlwKWB1jX0gpnvh2CZMruOw8j6iNG97jnZxl5lUWHyJtJ1zzvZt4J2d8l5aXZzYK++0JF/Xs2bPLIQQwLyWje7cB40BX//573HbnPSQEODQhXYAcKVBGBfiRQLb40kv50cKNGjAKa8B3gGHfYh1jDgww37cEAxisAV+oqAIq2ioqb3mSJ14tXaZmFOgyLCWAi9Bl8P2UIdbFKAcYfLM4AD8FTBQjMZ5UiUgMFlleBXjJxBdS3oTxW79c30bzXyGv35ja4qnY+AS56s3XbDPwyZI3bdaVbqnYRp42hq+iNvCHM27hZV76kHx61/75H/pZWizv8/IZ2BQxOsjyKcBVwKXn/xMEcq968w1+QeH4oIaDpMtIbrBsS/NLt6RyKD2bMnSpgIq2LiWq6wCulvJegf7RktxvVs1nXh9Vm1cTFaQAX0j5SvjVr52ExS9obInBfXfv37tX73Vr15DHPmg+8dgi/ILAk4zybtFD8wsaRTDzMjtrwA+Q0hVEqikFSlTgkMGHsQ/ts75LZb+mKOYo6YzEoclPLLqMwfLUwAIcbrY4BmtirSlbhwqoaKvDk1LAkri6uOSweY4h0kC8OWZpBiCtY4jxm47v0nEDGY7fZXytAjRvEQrwUYaf739/zNew+Plk4Lc+wVRLBPOKbtKVU/P/lMkQh3Ft5+BbvbVu3V9Kt4Jyvu39dba9rsvz86jNe96Fl/E4ZBnY7143DYsfdMEIUqBCChx73HBKMffXnG4WfsDwO+qSSVcbY3+CCWlNLHdjwA0Z4MAUiqIHFjqR4mMFVLTFmmSGcVcOFx5+PusmMhEpY8nMEAvAx8E6hqYB0hxnYfwwfBjXm+IQ5iMl0u9iCE0sE+EIlVaAH+48M5gFi4/TJQh7bPFDRxw1lNM0ecr1C+b/Cx8TuxxFgFVm355wEQMB30Yvv/RcstHFQwuHD53w13zvpmX/+2d+TvsPc8BTHdq8s//8P9vQPvN2PqpaTj6wLuqcx4s3EnYJpmN2wm7b9rdrN9/W/ounf/7Gtv8YPV03XDeF9x/WxZI6ivpf3yK50OQK8AuEvcoWYt/2//MfSvJN32Shd8CAPRPfcHNFzGq/Y+Be+zIWHHjQoddOvQLSBpqFx+FWaQ4+wIfBweLjOARNx+PQ5UCzyVGFw1fRVgWRyz+FXSRcWi41vpGOMQfenOIsOf0M+AHj0vpdxAAY12sODLz5KZYwHymRfhdDSI71SfkVVeDiiWcjODb/WSiVGAJaRwybc1/7+HGtPFEYTtGD76fCh4Gnl0cO8YwyOJ4uQAbjsdNvuYFeGHhAEkgfY1tPpLSiC7hekrMwurDwNp35NImny+WEYVXMYmkZSzykwYKtCxv0WoysFOhSgWAjsZeA25O5/gmCpWVDsvFefeVlwNYllfFYbpKAVIAmliYOFh/HgA9jPtaaWHx4c/ABvgNNodIKqGirtMLlzM+1YelwgPnOwgDXjJ303jgeJh4SM4QZXBcOMDKwibxP+r6NjRnjY5t/ZDxWjBRoXAV0ZA2lAN/i9x20f/BPEOIj5D0c79v49E8Xr+gmT7keh5skwHGwpllH4gSMazonJYYuoUIKqGirkLBKKwWaUQH7HMlv8Rh0NaMiOmYpUG4F7EWv/+o3cQZey/GOzf4A4LgTTrY/uEyMFJkhBVS0ZehkNdxSdUANp4D74MjP8QB0Ndzh6oCkQF0rQGFnl2HwkbSuF63FpSqgoi1Vngp08tOH64ffQBXIrZRSQApIASlQjwp0PjiXOz+2HheX9TU10/pVtDXT2daxSgEpIAWkgBSQAplVQEVbZk+dFi4FpEB9K6DVSQEpIAXKq4CKtvLqqWxSQApIASkgBaSAFKiIAiraKiJrfSfV6qSAFJACUkAKSIHsKaCirdrnbPCQI2d3PNI2/vxqT6z5pEDtFJg2/S5Qu/k1sxSQAmVXQAlroICKthqIrimlgBSQAlJACkgBKVCoAiraClVM8VJACtS3AlqdFJACUqBBFVDR1qAnVoclBaSAFJACUkAKNJYCKtqqdz41kxSQAlJACkgBKSAFilZARVvR0mmgFJACUkAKSIFqK6D5mlkBFW3NfPZ17FJACkgBKSAFpEBmFFDRlplTpYVKgfpWQKuTAlKgSAUmT7l+wcPLEkFXkUk1rBEVUNHWiGdVxyQFpIAUkALZUeCeu2esXbs6Xu/7Gzcsemh+zItpWgWaoGhr2nOrA5cCUkAKSIEsKPDG668+uWxpvNLHFj+0YvnTMS+maRVQ0da0p14HLgWkgBSQAnkrUOHAxx/9afCyjSZkhadV+owpoKItYydMy5UCUkAKSIHGUyB+2ca7N8jGO1IdUSkKqGgrRT2NlQK1V0ArkAJSoDEU4L0ab9fsWHBomi8rBZwCKtqcFHKkgBSQAlJACtRMAd6r8XbNpsehab6sFHAKVK5oc1PIkQJSQApIASkgBbpWgLdrvGMDOF1HK6L5FFDR1nznXEcsBaSAFMiMAs21UN6uLZx//xOPLsJpriPX0eangIq2/HRSlBSQAlJACkiByivQ+eDcOfe1Vx5KjqkAABAASURBVH4ezZBJBVS0ZfK0adG1V0ArkAJSQApIASlQXQVUtFVXb80mBaSAFJACUkAKSAFToECroq1AwRQuBaSAFJACUkAKSIFaKKCirdqqr1j+9NjWE9tn3l7tiTWfFKidAhdPPBvUbn7NXLACGiAFpEAdKqCirQ5PipYkBaSAFJACUkAKSIFQARVtoSJq17cCWp0UkAJSQApIgSZVQEVbk554HbYUkAJSQApIgWZVIKvHraItq2dO65YCUkAKSAEpIAWaSgEVbU11unWwUqAkBSZPuX7mrI6999mvpCwanKKAuqSAFJACuRVQ0ZZbG/VIASkgBaSAFJACUqBuFFDRVjenor4XotVJASkgBaSAFJACtVVARVtt9dfsUkAKSAEpIAWaRQEdZ4kKqGgrUUANlwJSQApIASkgBaRANRRQ0VYNlTWHFJAC9a2AVicFpIAUyIACKtoycJK0RCkgBaSAFJACUkAKqGir7z2g1UkBKSAFpIAUkAJSYJsCKtq2ySAjBaSAFJACUqBRFdBxNYoCKtoa5UzqOKSAFJACUkAKSIGGVqDUom3a9LsWPLzMYfa8xc4PnPvmLprXuSQgrdmxcEn7vfPNj22Vc86a3TnngUfjZRjz4zmd5sQ2ZZ1F50QWxInngpnXuXTugidwEpGyzprnbBt/fv1fU9rYbl/5G/uIo4b277/HbXfeY72lb2zL49vqb+wZ7ff7C/D9lLtW+jqDnJn4n5GYPOX6PI+dmxK3ET/Y9/0N4/P4RW+YrOREFsThSGOkb5hK3LGDTegvqak2dv0/bgpaYalFG5O9+srLI08aahg76gRzYvuN0cNHtQyLeZjWEcPazjgVJxFVzjlubMuY045PXAnkN8e0YBORss6icyIL4iRON6rlmNEjj03sgkxZZw1zXnPVpe9v3MCeyQS0sdlIoOE39oS20znMRKTctdIvQD/nM08ty8SGZ5Fr166+4JwzTYqUY+emxG3EwmJbiQ2TlZzIgjixJjDpG6YSd2x/E7IAHyknN32dfs4MbWz2dsOgDEVbw2jhHYhcKSAFpIAUkAJSQArUlwIq2urrfGg1UkAKSAEp0CgK6DikQJkVUNFWZkGVTgpIASkgBaSAFJAClVBARVslVFVOKVDfCmh1UkAKSAEpkEEFVLRl8KRpyVJACkgBKSAFpEDzKVBfRVvz6a8jlgJSQApIASkgBaRAXgqoaMtLJgVJASkgBaRAVhTQOqVAoyqgoq1Rz6yOSwpIASkgBaSAFGgoBUot2i6eeDZoKEl0MBVTYMXyp8e2ntg+8/aKzVC2xOxqULZ0f0qk/68ZFbh26hXjx7W+8fqrdX7wWVlnncvYPMvThqnJuS61aKvJojWpFJACUkAKSAEpIAWaTYFtRVuzHbSOVwpIASkgBaSAFJACWVNARVvWzpjWKwWkgBSoTwW0KikgBSqsQKlF27Tpd4EKL1Lps63A5CnXz5zVsfc++2XrMAYPOXJ2xyNt48/P1rK12sZWgPstyNwxZvQmkDmdG3XB2j/uzJZatLlEpTgLHl6W5/A4MmbSU1m82Xwi45h8xsajxNRQgXqbOt5CMZNrzflHkiEOjhnCyoLEzIlkWaZTkmZToNC9FMfHTKBhlwFBPM3EIYkkwT5yxeTi/bHym1mB2hdt7NGRJw0t+hwwlgy5hufqSh9l2RJjSAhvAbGlNx3xEDHNowB7IzjYmAkC4ibbr4hRcZ48GeaKkedYwvJfLbMQL0iBRAXYHuwl68I3J9HGvTGTODAmGRggjoHxY2gafBLfSN9yODEPA++H+T696fCD5VdCgXrIWeOijS2YskdLF4jkTFF0nmA4qWBSstGbjpSx6vIV2G/QAd+/6Qdnfes8n8y6z95gC7mjwIdxzVwOYQGIDBhrwpcCS+Jby8YiAT4W4FQCZGbqSmRu8pzbbbfd18/81s23/ihzf5/gThwbg+3hmvgwrhk4QS+RMEFMYpNIeCzAAQwEvoPvg0gCACQW4MSk8XQFgCfYkfgwrhk79KYjHiKm8RSoWdHGBgUIig0AmQ/cKIKdj0MzF6wXC4jBOtD04fO5fD9efrkUGLDHnpOnXP8/b5n5hS8e1KNHzfZnuQ4nyMM91zG+D+m2GQ5NH0R2CT/e98lm8MlE301Br/k4RcCmc5YMvk8zF5iUyFy94nMrkLPnuBNO/uGsead//exdP/OZnEH13WFbAuuDJdPEJoKN5Hjfh2SUA80ABIOAzNUkjwt2DsHOdw5kAMYa4M3BBj5NQQrECtTyociejhEvEYYNbXA+TjzWGLp8QAZNGACJdaAZwHXh0IV1oFkd2N/Cdyxc0nLK6GDGadPvMk0Se9vGn2+9WGqgYGx9NnfaeefzLpx0+4x7jzhq6Pbbb1+fiyx6VZwIB5IEvr+18AkwEOY3jYxtShjDgT+EYL/ZpU88IAwLcHzAGCDNYToHSOfj0KwoUq6XLq8IC5jd8QhJKrrI6iQ//MivTP/neydedPnn+u5enRkrNAvbxkB+c5yFCWA70Cxd5mDN9wfiQzoQY4xzrMuaWGv61sXTmwJ/iO8z3AHe+Tg0qwNevs6c1cHi2fzBjDxxeLLQBXjWuF6uDq4RSAcykMcFyKm0ArUs2vI/NvaxgSHOwWffYA2+b4yz1mXWkeV1SJ4/8pyaS2XSlVMT/0PqdPXqvesF55yJGiuWPz2u7TyuMZeWXn5hX3PVpfSCa6de4bqq6uQ9mX3BmXl3xwknjdhhhx3zHpelQE4EYMWxhcwFC6Y31+6iC7gwfAeGJPKQdLmwLh3iAWFYgOMDxgDpHHzALDA4BprmxNZ1+fFxWDrDts91vfBMGt4y6oczbiE/lgdP8EuGp87RQ49Jz5+VXvvTgiu/8z8G7rVv9+7ds7LseJ3sCh8E+E3nwztwfgHN2ELmAqmIxwJisMAceBwsDBY/BnwuxMHFMcyeP/Kcgkvg5tva335rVRzP04RnyqLOeRwXz5EBA/bk4vLDFjwwhy5DJv7XPvzFZ93PRtFmKrNrzTFLk01jPhYfBicRdBFAF44h8GkGsDCzdJljlmYAkvug1zV930iYLsEVRczY1hP/+Mc/4PjgCcTteOH8+62eu+fuGevXv3vsccMthoFcYzdcN4Vizpg6t9SXM++e+9/GnrXbbln9gpOnwmweNoALxodxzXSH4ADEw2CLAAPznzqf/HE2GGZxY4Om41MchqT0Bl1se5jE64USjT3G5dD54FxisPgHHnQoPE3DmWdN6N2r978tfdyaGbUD9tjzH6++7sZp//yFLx7ED6GMHoVbNvvHAGOOsz6D74NtQ5hj8GFcM9EhxnhzzMI4hwzOhw9Aby4EkX7THwIfNGF8MLsPulzT942E6RI8RPYdtP8lF7S99spvg+C999lvxKmnr3rzNfvfG+RieWzxQzxxqOSCyOo1NZOnQC2LNn+bOt9bW7JLJB1YNiiODxh4n3E+XebjGGiag8WPAe9Ar/NxaFYavB67eOLZibPs+fmBVGnPrXjWeg8ZfFifPn0p1HgIcb1xKb74wkquNOutZ8sXnNvuvGfiRZP67t6/e/cMvxLIR2R2ZrxzYIzH5pPExRDPWNeMHQvAxl3GMDzuhQEEYAEOwAG+g58IC6PLHKwD08EHoDdg/CZD0gP84JTrZeBeexP5/HPLscCukV169R785cNpAi4cajiumvW/e4dmFmF/WnDrD+458uj/0rNnzyweQq41swfYCa6XJj6MOfg+IOnyGXwY47E0C0I+Q8ifCylz+UMIC5owFQUFWa43ZNyN+QHz/Mo/XS8s4+BDh7CpDj5kCL5QcwVqWbT529T5uRTh4iGGXqzzcWAM5tNrTWfhY9L1ZtHp13/Axg3v2Ws2fjB9/YxvPfnzf+25w448nOx6+/DDD92fHdTtHxxMmHjpFVddyxO0e/dabsKqbQC3CYMN6XhWEnTBJKLLsCAgaCbmNJLFAHwscE7s0+Xg8hOGD4/jYE1srdCv3wCmXvXmG1jqs+/f9IPfvPTi+xs38OMHBoxrO2fDxg28scYvCHUS/KUDD512+10nnDRip512qpMllWsZbCc2kmXDB66JQ9O6nIU0ny7nw/h+0EWvA134ZnEM1sQCYwILnwtBZCaaPEdY57p1a7Dcn3mC8LVn7drVPHdgDCNPG2OHTC8xRspWR4FMPi/9K7BQmWyrYRmINeDHsC6z9JpjlmatwBXSq/euNjufhI4eeszll57r3hBwvVG9HXb4UXweRaULzjmTyO9890ZG4dQVZky/6c7b/+fv3u3i3QbHaJrHdtbszjkPPBrzxvx4Tqc5sZ09b3FMGuPnvOZ7N/E+plyiWX4sCbEG/HRYWGAZEjDWhDdw6s1Jt3mGpSdJ72Vhbhb89OC4l7FFjAryuOKM7zuTrpz6k3t/9LPHH3YxkAP32vfJZUvtV5DjM+T86sWVUyb/92eeWvbxxx+nLPs/f/Eg91sOVQPMaL8/YFzzvrmL5nUucU3f6Vi4pP3e+T7j+7O9C+2Io4amrC3usjxsALqc75qQgKZ14RusiaWJNeDnCRISaRaH4fgAHwtwYsDnQhzsGJI7QDofh2YNwY8cHiIswH7hcGn88M5baBr4hjO29UQ7Xnu+8CuISOuVrYICtSza2J0xEo+ZMHZJ3AVJFzwWH8cHJPAZfMIMgU/Th8U4S5fzzYHJBSYlJldviTyPFl6zkWTa9Lv46eNecW/+aJO9S+jWrdtjix/i0iKGYC45Pp7yCZVmvYF1XvH/npv+sOGzF2ImYtzYljGnHZ/YBfnNMS3YRIwddUIiD+nnvOaqS3kfUy7RSA7IhjXgO8Akbhv4GIyKSRj4AJCJaYOwlCbDDcSYg8V3oMksrul8eOA3nW/Bfq8xFbL2p9Zf/dpJvJPmx0zntr9sYy54fsz4f74DmVGsWf02V8qdqb+Cfv3SC+5xy7kIMKHt9IBxzW+MHj6qZZhr+k7riGFtZ5zqM77vX2hc5gVpa3lsiPPZM4Cm8Vh8gGPAB/hYA74DTDDcdSU6xCfyAUnOXAgiXZPMPuD9Jj5MLjBXekCugXnyvGPjafKf/u5L9guHD6k2cN3are/ezDfL82Xh/Pup8NxfGhgvW1EFalm0sfNiJB4tYYl8OskokB5T/V4uuRIn5eLZb9ABWPdHb+5dQpyZKxCSH0/YOoQ9bK7/3uRVb762ZcuWOlxhGZfEqa/DDZl+gCzYQJg5WHyHoAnPYQJ4QBNYEyd/MCT/4PRILgGeK1/44oG8k7YfM/ZCmlFfO/4f+EnzxGOL8BsA/Ao6d/zYxQ8v/OijTQ1wOP4hsB8AOwoYT9OcwMK7mKCryyZjiTFrDj4IfJoOzAVoYn04BqeasNWWMqP9+N/2uWaK/cKxv7pJyZnyAEoZpa7iFKhl0VbcioNRXCdsU2zAF90kWwyyxSQMfADIMi4mSG5N3hBs3rw5+MPqNWve5oH03Ipn169/17+ErFzjuWVj69P+4umfX3o6qkgaAAAQAElEQVTR+Ecf6Wy8h00gONvDGBx/n1gTa73lsiRkFmyhCRkCCh1l8cwIzMeSx2/CgEQSPkY8No5JZ3gI8ebgtVd+y4sBizz4kCEwK375C/sL629PuIj1gJGnjeGDOJ/F+YyY0S8+H37wwR233nDD/7i6YX4FcV4A2wDY6cMag5MIeo3HiUdBWm9sLdgsvTiGwKcJyOMQNOEDhqaBrhh0xSQMfABIlhSQ5W2++87aDRs32APFMvMijZ897oljpFl7viR2WYBs2RXIfNFmmxibpzREGog3xyxNA5dEDLpiEgbeB6li0g8oi//4oz+lMuOzDh93SHjmWRPc2wIeSzyceN60bPuP8eIcd8LJ3L7tBxPBdQt72Ez67+f85qUXtmz5tG7XWcrC2BuATQJwSkmVz1g3C3PhA0bhYxNBgIEYQ2JYQSQJSYUNRkEGTAHNAkP5MfPiCyu5FuyiwOLDwPOumpU4LHhgDh/E+SzOZ0R6C5ynjsL5FXThueP+ZfbdGza8V0fLKmopdnbcUPYSgHRM4NAFiAE4QW+uZkHBloTkDjDONydgaBqsN7B0BYw14X0UsUh/eJ4+D5Enly3lY07b+PMZwsWS6yHCpTS8ZVQmni8cSMOglkUbWzBGQcoynM3NECw+TpcgMhFdDuwygAWQOQ6DpMshDkhkuB46Fm79498jjhras2dPexkwbfpdBHNR/dPVl+Hcduc9pD3woEOvnXqFK8vwed5YPO8MeDjxZCI4E3j1lZf/cdL5/zJ7VgM8bBIF53zB25bAMUDC4GPxcXIhvdcfRSTZHIMPIGP4MfiEYQ1+MEzQhEmBBVs2LM2UYAsgxiElOLEr5Xoh3r8ouDQWdc6DgW9gfPLJJz+550dXXX5hY/wKchuDrQLSTxzBBBBmDj7Ah8HB4uMkgt5EPoUkWxGjUhImduWahanpckgcG5OUYrxOZhRvl+nF4rt/Cto+83Z+wBgZPETchUb8uLbzZrXfkaHnC0faAKhl0cZui5GnpuwYwHAXjw8DHGMOvDkVtQseXpYyEV0+8lkJRVjriPCPf93lQd02flyr5YzfCvBAsi4sfj7T1U+MPWwuuaDtmaeWbdrUOH+aw84EnBGA2liaOFh8HAM+jPmxtV5s3OUzZEiMgYzhD6Q3aMIkwg8LfGYHNsp10YR0zdghIEAck8KkXy8M5EJw+XkmwcSAj6+mOCxDDL+CLr/03Om33LBuzeoMLduWyoZxcOfOunJZi7dgYnBgcLD4OAZ8GPOx+DA4Bprm5GMJ9sfmM6SImPRZWICPfPLzw56t7o/C55nCk8WGcy3AGLh2jMT6FxpPKJqQQjUVqFnRxm5IPM5cvAW7XhxgpLMwwDVjJ703jndMlwO7DHCp5OSjgP0Dhft+PDOf4EzEsEOAv1Rrmo15n/H9ON7vNT+fGIsso3WT4oA4cyIZh4kpuwKPLX6IF9jueVz2/BVKyIZxyHMKi/eDYWiaxXHwGd8ngCbAcQiajsfJ1ZWLZ0iMILiIgHiImEZVoGZFW6MKquOSAlJACkgBKSAFpEAlFFDRVglVlVMKNJ4COiIpIAWkgBSosQKlFm0XTzwb1PggNH19K3Dt1Cv8v5ao78X+ZXX2Zx/tM2//CyVPCtRaAe63oNarKHj+jN4ECj5ODaiMAto/TtdSizaXqGaOJpYCUkAKSAEpIAWkQBMooKKtCU6yDlEKSAEpIAXSFVCvFMiCAirasnCWtEYpIAWkgBSQAlKg6RVQ0db0W0AC1LcCWp0UkAJSQApIAVOg1KJt2vS7gOXK37acMnp2xyPY/IcoMtMKsElA/R8CiwT1v06tsIEVYAeC+j/AyVOud/8N/XKtthI5y7U25amQAux2UKHkjZe26KKtZlIseHhZiXNbBrP5pyo0nsxFDGGUIAWkgBSQAk2ogP/IyOXHsviR1hszxss2gALZK9p80dmaMfwAfAKwMUaeNDRXVxxcHFOFKYpbmEZJASkgBepDAa1CCkiBAhTIdtFGVRQjOHoCKl2cuRmZKABdAWNNeEEKSAEpIAWkQKCAe0aYgyUAC3CEJlcg20VbESfP9j0WMBzrQNOH482hyxxnYWJQI3aJeJSYulOg3AuaVtRff5ZxFW3jzy/7XyCVcXlKJQWkgClgTxB8c7DOx0mB/2xyPk7KEHVlToHMFG3sPAMSOwc/H9imd5E0DTDmmKUZwHizdJljlmYAVkWXkfjmOOsYHBdmvXvvsx9PU3geq8Y4CwNvmDzleseb4wYSMLvjkcFDjjRett4U4NwNGLDnrPY73cJgOGs+qOqsF8fn2RucaOsy23LK6I6FSywGh6bxZm041prOPv7oT/G/890bg2yQghTIogJcRPH+5zbIzZAuOyIuBLtSsNxOjeSSYSCMAR/GulIsFw4Xow3xrT+cKVwXwQyxhLYq14Xjj6JpINg5/mPC94nJBcIMBJiDxS8Idgj+4m04xwJpy0Nhjijm416LaWpb7oPPTNHG5jOggDm2PxItMQEIgzGLUwmwKkvLLL5vJAw8Pg7WgZvLzbe1v/3WKsc4h4tneMuoH864hSFYLhKCXS93GQa+9spv6QVjW09csfxp1yunfhTgPHLufnLvj4IT9P7GDddcdSnnzuD/bxOtXbv6gnPOhMdyIN+/6QdkwAHsgW9PuGhR5zx6wbVTrzj2uOHcT+kChPXp0/e5lc9SI+LDOLzx+qt33Hpj7169zzxrgiPlSIHsKvD8c8tZ/MGHDME6DP7y4T132JEuLgqKDHguE7DggTkjTxvDxQgDNn+0iZsqPOBq4priyoJPAVfQ+HGtxINnnlrmLtLWEcM6H5zLQDK4OzYxC+ffP/HCSfAOjII3uFH0GoN1Pg+LGPT6cAGQ5uOUAu4YVGNDDj+aQwvyICa/9zZueI9FgjVr3p505VTiXZh/aHoYOVkq4WSmaLODZ2uag2XrOMRNmACMJR4SxxD4NEsHmW0WUpmPxQfwzqcJuIPsO2j/Sy5oo/ai6YPr4bgTTuYxb7cDLP6BBx0KTxj262d8C4ZnNk2hbhXgTPnnsdB18pzg1s9DiEcRY1tOGU1CHj/ufxGVPUC1Rxi9gLAddtjhmad+bj7WB8GPLX6IDOTxeflNqEADHPJzK55dv/5dbqGUFO5wDj50CCRd/DjhJ4p7vc0l88xTy7gY2f8u2Bzrgi/lumANrGTVm69xr7a0OJdfeq75+djg6cDzwkecwfXSZT5O0WD95114GfeH7197VZwkENNUHX7yqXGkmEorkLGizeQINreRXVq2tcXgGGiag8WPwUQO9Dofh2YiXCpizMfiWzC+OWa5WfDTzT1xjTQ7cK+9cfi9iAVcUdwRdunVm6cyTbOLHpqPH4NgfmIyqYHff3GMmOookH6m8lnDqjff4K3Anp8fSDAv1Xgg2YdOmjF4YvEj+KEFc7H4cQBjyUCeuEuMFMiWAtw5+bnLq+VDBh9mK6fw4h0zJE1umFwF/FDBN9jt1G6txjhrXcFLO9ebv9Or967cfvOPjyO5aRuJ48PIylnE5GHEIylxin79B/hiclvjYYTC+Rws7ybcgfAmj3OUOIXIPBXIUtHGibeiB4vPEZrFMQRNI7HwDMEpFIxyYKzzcWimIJiReJiU+LirX78BkDywsexyPpD95qUX+aBmD2/sho0bTm0dS1oDFwaRhokXTuL1DJMC3soccdRQv9di6tU22rqonDhT776ztugD4xnDmzY+oHN/5JHAFwpur4nZ2Cc8sZ5fufWbERYfJohkLI808pAt6FJTCmROgaDYopjgYoHsu3t/XrOtW7smOCJ67dYa8Nxp+WlEaRLw+Te5sp5ctrR//z1uu/OeIu633Ma5XTMdFt8cfAeYLsFAA5HmYM3HFg3uFdwxnJi8BTh66DHPrXwWhdHZ0vKUYS4QlGW8vPy7L3zJjuKCc87kZnjehZeR0EbJFqFAzYo2Lp5vT7iIcww6Fi5pv3c+TiKmTb8rzwNjZ5Chy2BiDESag8UvC0gFWEmQDQYeBHyuJmWZdbHpJ1059Sf3/uhnjz9sDJabC3eHTR9+SFpAZeb/uQbv5HkzTxhY8ctfuFKPplBNBbg3cbOjSOKGHs/LT9VrvncTW8KQeKOn6uI7OO/GeEPG/ZG7pOUhs3uZikMTnicWljOOXbduDZeYMTR9UP/5Lyf8LvlSoOYKcGej7rGL4r65i+Z1/unf3BjjLE8N7o18BuXqcK98+I1EEzLxKKwyS+wqC8lrqmuuupT7LXdj1hk/uVxlQ29Q3PgL4JZOkxgfMF2CgQYizXEWpmj4dx4OiqcP7+R4+lhCbm403US8kJs85XpOjfXyJOJ5ZD6R3Ay5iZHQmErahs1ds6KNnzXu70BbRwxrO+NUd9YD5+KJZyM/2xcex4AfMMYHlhgQkIw1wJuDxS8RTAQsFU4M8tNrPH46eLIS8NWvncQz+4brprD1aQLjcdauXX3P3TNwAE90mtyw8AEXDHc0m4iygOIAUqi+AtybuEPlmpebO7d4toSBO76LdM8tTt+LL6zknsj9jtd1/E61GJqQDHzmqb/8D4SwAQggjBieWzy9YPAFKZAhBbiV8UqGvQ2+MXr4qJZhODF4anBX5EKgDrAfIfzC4e0yTcjE47WX1oldRvovk+z+aZYqxAK6tHyNHdt6Iqvlwtxv0AHuB5UNhKTLQBjBxjMLpPlmaRpomoPFzweWDZtPcD4x3FK4sey4004cDhLZE5mBkHTh+JjVficPd/9DM3UeizFQtvrB8otQoGZFW6FrzXPLEsbmcMlpAtcs1CGVA2Odj0MzABMBI3Fi+F3mp1h7U/KFLx7IzxS7tlPuONyk+GrGSx3euFCxjWs7b9Wbr9kCKAsoDlImUlflFOCOxn2tiPz+c8v9WxP/LMc57Ynlqj3eVeDzDIOPg7mr8tYh5sVUXAFNUG4F+BhKSj568l6Zt8vWtEuPd0J0ORCDz60VG8Duru4nMRed3T/N0gziu2wyhA8gXINfO/4fugxmFj+G54sDvPNxaCaCLpDYVTppd55DDj2M778clyUMtDXSWddLxTZwr33dCxrKVhcjpzgFMlO0BYfHBg02ehBQliZTOJDQ+Tg0AcvAVgI8U3my+r8a+e0CYx+/nl+5nFc4vMixqanVqNio27i67Mb0xGOLrEu2hgpwOjgp7ttN6SvhvNtLhTiVPbHczZEtis8zDD4I5ss7pSRPtYBXUwpkUQH3Upn3yrxdpslRcOlx8wx+tPgBxPg49rjh7u7q8zXxuXgNzI5jFgfgO/D0McAb6ILBx8Hi45QFvGDjx789fUjIT0G0RWF0punDyl/uVJD2YOINAu9EaQplUSCrRRs7Mtfxp3TZELaygaY5Zmn6SM+T3uvnKc7n7Rrfxbg2eHNGBiw+DDxNu3jGtZ2DD848awLPcivU7HeklW4MmXTl1Hw+j5JEqIQC3Lw4Ne5ft5U4Bd/BeSzxJpX9EKSiFKPLnljWZXU/DyprNe6lHwAAEABJREFUmuU2ShFJKRnfbS1AVgpkSwF2MtUD3yIBDk1bv/3jeneTbBt/Pq98Fs6/3wVYGJa3QYx9bPFDdneFKQLcbMnD9WVjcY4eegyvzLlmjSnU8lSypwwWPx4OD2kWBxDmN/Fh4EtHIKapaqSfHBG+fsa3uBHZUSM1txpeKKAGYXxl1udRdCgRWS3a3GEXsSnZyolwOUt3WFWMOC1bfHbHI0SOPG0MvVj8mbM6bIvzIpqbiP1zDeyiznkwhAH4G66bwm8d4sGBBx1Kl/2awdJrqa753k3L/vfPuHEwRKiJApTX/ILnd3xZZucmOH5cK+eX/cB5B9wEeVCRPC7FCFuz5m02CduMAAMfaygirb43RlYKZF0BPolu3vZ/OO5Y2P/+TXJ4y6hZ7Xdwe7QAXkK7i4iq4oJzzvT/qNRiCrJMx2V1823tXJXgtjvvoV7hauWadXm4WukydCxcEv/0cpHE8JByTXwY13QOvPMJ8JvGw8Cb36WlqCKYlfNVF+DQpNhlIEfni4li7u92uL3YU4zga753E7Wvf9Sz2u/ko5Cl4h716CMLySaUokDmizbblNgUFdJ7Uwb6XSRhUwbwA3yf4Bh+gPlcCWO3/dWqH+zveEox1xXcU/yxJKFpObH+qOm33EBCGHih+gpwXriL8RM/uEFzRoKz5tZ28cSzOWX+vd51mcNYtytwaBLMEAZagLMw/izcXo/z/ovNLkyOFMi0ApRirSOGARz/QLj62P9cI8DvJYwmpIFrhyvIH9ilz0UXjwrScvW5PP5KbFIWQLwL8B2eMsT4DD4MPMCPAU9AzMPA04vTJTgoggO4545/CP6x+zxjXbxN5/cyiucRZwTSemWLUCB7RRvbIjjOmAkC/GZBwf5AfMbGgA9ATMBYMxdvvbKNqgB3sVVvvpb4TbOah8zr2/MuvGzDxg3uHx1Xc/Zaz6X5pUAGFLBnhNl4ufAg5mFy8XSB9F4ChAwpkL2iLUPiaqlSwBTgNzd1W7k+klrOQi0fRhnyT1dfVuhLBUYJUkAKSAEpUA8KqGir6VnQ5E2jAHUbqOHh8sKPzxOq2Gp4CjS1FJACUqBEBUot2ngOgUIXwbd8PmxjCx2o+IwqwCYB9b94Fgnqf51aYQMrwA4E9X+A1069ouw/AyqRs/6VLMMKs5yC3Q6yfARVXXupRVtVF6vJpIAUkAJSQApIASnQrAqoaGvWM6/jlgKVV0AzSAEpIAWkQBkVUNFWRjGVSgpIASkgBaSAFJAClVKgOYu2SqmpvFJACkgBKSAFpIAUqJACpRZt06bfBQpdXMspo2d3PIItdKDiM6oAmwTU/+JZJCjvOidPud79r1yUN7OyNZgCg4ccyY3R/hv09XxolVhnJXJWXkPNUIwCuiUWo9qfx5RatP05T/X+/zz/484pC7IMZlPCgq5C4xlexBBGCVKg4RXQpdHwp7j6B+hvKt/PtZI4xhiz+Y8iMn1IYkCXQxgFgrCgSUCAxIBEMhgYN4sbFecRU14Fsle0+cfProrhB+ATgI0x8qShubri4OKYKkxR3MI0qsEVqNbh+VcQfi50uZx4YJdDFCAFKqRAJe7bJebkAgkONmZcAF0OiSS9jjcnZoyXrUMFsl20cSXECFQmoGo7kokCsJiAsSa8IAWyrkBwcdEEHJSz5sB0CSIdugxWgBQoUQHuw+y3XElSuvwhJPGb6X6eOROTMNafCx8mjjTeurCAmJg0ni4HGMJcU049K1DVoq0ehLCtiQWsB+tA04fjzaHLHGdhYrD7u0Q8qoxMyymjOxYuqf8/iynjIStVhhSwy4cFm4PFF6RAEQqweXwEGfwu/KDXNeMuGIOLKcWxVL7NPxujeJpYvHNo+j5NQ5fBiaNsrGyGFMhM0caONCCuc/DzQbBZaRoYa45ZmgGMN0uXOWZpBmBVdBmJb46zjsFxYda79z77zZzVAR9XWjDwhslTrrd4Z91AAmZ3PDJ4yJGuS052FZg2/S72AyfXDoEm55edQBOSLpo+rIvedJAHxDFsGzaPnxA/yMlASGw83N/MxABinDUHxsHisQ7WRaSDMbJSIJcCxrstZI6RzhrprONx2GnwOA4wgCaWLgPNRBDjeHxAE2vA92GpnPW78vQtrVmGmOMsjIEpcByfyyHGB2HWjIfD0+tAU6gHBTJTtLGlDKhmjttMsUNMAGJgzOJUAqzK0jKL7xsJA4+Pg3WgFLv5tva331rlGOfw4BzeMuqHM25hCJaHK8GulzdqDHztld/SC8a2nrhi+dOuV05jKMAe2G/QAQsemNM+83Z3RK++8jJn3MHvcjH5O2wbNg/Znnlq2dq1qy8450x8Pycbr0+fvs+tfHbAgD3xc2VmlIEAc5yFiWGXg/Eu0jnGy0qBsitgGw9rYMsxBRaYg00E8cYT6fs04bEG/FxgFDGul6bzY8fvZVQi4lEwiZFG0hsAPtdERNLrQFOoBwUyU7SZWKVsL8ay/8iDYwh8mqWDzDYLqczH4gN459MEPJL3HbT/JRe0UXvR9MHT8bgTTuaBav8LrVj8Aw86FJ4w7NfP+BbMtVOvoCnUhwJlXgVnmT1ALeWXUGWeI490g798+A477PDMUz8nFh9rYDMbrGkWBgfrQNMHPBeCY2imwIXJkQLlUoDtZyAhDjaAvyGDLtdkIGFYx3TpxPEMh0wfSABhiTG5uuBzITGPyGwpkLGizcRlR5pTkHVbH8fAcHOw+DGYyIFe5+PQTIRLRYz5WHwLxjfHLA/j8eNa33j9VWv6duBee9N8/rnlWMB3Mcq7XXr1tqem2UUPzacrxuaPNr3//vvuO1riV614lJh6U2Bc2zkbNm645+4ZtV3YwYcOWbPm7YcWzMXiu8WwmYFr4rDPYXxAxiAMwJslHh/r4Jo4ghRIUYAt5BCEOR4n6KIJyX7DAfgG8+EdYHKBmFxdMU9+I51jTZIEjPGQdOGbxYHxAeO68H3A54If5nyC8UmOFepDgbRVZKloY1fZ9sLic1hmcQxB00gsPENwCgWjHBjrfByaKQhmJB4mJT7u6tdvAOSqN9/A8sbl+zf94Dcvvfj+xg17fn4gDJbH+amtY0lr4KUdvKHnDjuOPaPtyWVLmZfvqgP32tfvtRjZOlfg2+dcxOfIO269MbGmr9ri2Xss4/mVW388YPFhEmdnH7LfsK4XH8Y1zYEx0HQOPsEONAUpkI8CtoXMBvFGmg262GnwjsQ3wOBgATFYB5quy5F5Om6sc/yBpIX3GZqQPoMP4wMmFxieC7mGGB+MgowZSKG2CtSsaKOw+PaEi2xPdCxc0n7vfPNjm/+LIvY0w7sUlBgDkeZg8csCUgFWEmSDgQcBn6tJWWZdLaeMnnTl1J/c+6OfPf6wMdh+/Qf077/Hpg8/JC1Y8MCckaeN8SszGF7jEcl31VVvvua/IIEUqqwAJ+u2O+/h7IP75i6a17kEJwYXAqebtRH/xS8dwknnCzjNAFv/yu3hZTZ8doX/AYq9013xy1+whnXr1nDZGkMzAPsQBsvCcLD4OHmCYIc8hyis2gpUfj7uY+wcw4z2+82JLZ8R+PhQ3HLIxkCsA80AdLEbfTJoWhdhBprmYPF9wLixODT93kSfsEQ+T5LhuZArA6uKhxAckDBCzRWoWdHGJzxeAtmeaB0xrO2MU82P7cUTz0Ym21U4BsICxvjAEgMCkrEGeHOw+CWCiYClwolBfnqNx0+H/dOEr37tpK+f8a0brptC7WXxxuOvXbvafTh7/NGf0sxVma1bu6ZX712Lvscxl1CiApwd+wN/NsA3Rg8f1TIMJwYXgp1o4l/61XOc+sTXWv4/RBjr/QMUgqnhbINh8WFKXDmbine6776zljzPrXh2/fp3YfBTwHExOzYlxroIA75PExgj21QK8PuEzcy2cZjQdrrzAyfXX5XkoxipCMM60DTAsP0AjjHpljADYeZg8X3EjN9rfnoM68kFGx7YXMHwQSRNSIATADJ9VUG8mlVToGZFW6FHmOcGIozd5pLTBK5ZqEMqB8Y6H4dmACYCRuLE8LvMT7H2VuMLXzzw8kvP5XZG5MC99uY9B04MvqBt3PBersqM13LxkEZiGvJY5nfMplo678LL8q+22Sf+Yw8fphRxqPn4HsprP3tNiMWHgc+VlksDsPnTA4ghgDCAA3AcaApSoHIKsNNSkrte26UpkUV0ueT5j2WIgSHmOAsTwLogzXHWMTg+LMBn8DlweByhDhXITNEWaFedXcXGdWABzsehCVgGthJY9eYbvIx87ZXfUpBZ/oMPGQJjH6qeX7m8d6/efXfvb10816nYqNtcsPHYlC56hbpVgJdbd9x6I2f5kklX12qRfAnld4J7I862x4eBD5bEhWAgBgS9ftN6zfq8+ZYE3zn4ghRIVMA2ibNBjOPNCXppGo/FN+CzM7HWrCvLqlibLQnfHN9COsA735yAoZkLxLuJiKGJbRJk4jCzWrT5uyoQOqXLItmFBprmmKXpIz1Peq+fpzifdyQvvrCSVxr2R05YfBh4ElrpNq7tHHxw5lkT+vTp+8Rji/ADpHQFkWrWmwKc68cWP7TfoAMmR/9d5eosdc/PD+R7KF9F3XT2W8J9IeXC4UIwiwNcZIrjhzEWEIwFdAGaWIAjSIFcCrBDfARhfhe+62WbGSAN1gVJEx+Lj1M/YD2syq0HH8Y1zYF0gHG+OQFDMxGkJd7vognpM/Jrq0BWizanWhH7iV2YCJezdIdVxYjTUofN7niEyJGnjaEXi+/+xvbaqVfw2LZ/roFd1DkPhjAAf8N1U/hQRTw48KBD6bI/h7LHqqUKuhgoZEuB9pm3P/PUsiOOGlqWuo36jy3hYDndJmQWvn7yDZSAtvHn845230H7B69v2Xhr1rzNxmMUYVxH6InFTwdhiWCsj8SYpiclQDkVYL+RziwOsK3rM/iQdKWAAAfCnI9Ds4ywhFgf5KeJjQHP+mO+S4aBxGADGIkV6kGBzBdt7E52GDZFzfTelIF+F0mYKIAf4PsEx/ADzOcROLb1xCDS/xtbSjHXy/PbRpn1x5KEZswz1u+yANk6V+DiiWfHe4CdwLL5/E0XAfiFglHsBx+Wk53DJvF5fDZbrrnIQzyjCHNrwE+Hi5QjBWquAHvVXwNN4DP4MQPpg4Bc8MNK95mFJNgAkDF4QhEW8+mMDXEWJ0D6cPVWU4HsFW1spkCgmAkC/GZBwf5AfMbGgA9ATMBYMxdvvdmzWrEUKEGBlMshpauECTW0wRXwt43vF33YiUkSyXymCAYGzcQMLsY5flj+JKMSg+ED5ArLxQfD1ayCAtkr2qogiqaQAlJACkgBKSAFqqGA5ihEARVthailWCkgBaSAFJACUkAK1EiBUou2iyeeDQpdfOeDc8e2nogtdKDiM6oAmwTU/+JZJCjvOq+desX4HP8Ls+WdSNnKq0D1s61Y/jQ3xvaZt1d/6oJmzMo6CzooBVdNAd0SS5G61KKtlLk1VgpIAeNwJ0kAABAASURBVCkgBaSAFJACUiBPBVS05SlU/YRpJVJACkgBKSAFpEAzKqCirRnPuo5ZCkgBKSAFmlsBHX0mFSi1aJs2/S5Q6KG3nDJ6dscj2EIHKj6jCrBJQP0vnkWC8q5z8pTr3X8wubyZla3BFBg85EhujG3jz6/z48rKOutcRi3PFOCWC8yX7VKBUou2Licoe8CCh5eVmNMymM0/VaHxZC5iCKMEKdDUCnTrpgunyTeADl8KSIFcCmSvaPOPhJt7DD8AnwBsjJEnDc3VFQcXx1RhiuIWplFSoAoK+NcXfi50uZJ4YJdDFCAFpIAUaEgFsl20URXFCM4TAdz0A7KIZj5DmCgAowLGmvCCFGhsBYJLjybgkJ01B6ZLEOnQZbACpIAUkAKNqkC2i7Yizgo1E6OwwDn4gKYPGB90+U18mBju0ZLixKPESAEpgAJcVsA55tMUpEDDKKADkQKlKJCZoo3bt4GjdQ5+PqB+8sNoGiDNMUszgPFm6TLHLM0ArIouI/HNcdYxOC7MevfeZ7+Zszrg4z9AhoE3TJ5yvcU76wYSMLvjkcFDjnRdcrKogJ1QNgOOv362QcfCJe4f7kybfhdn3ECXRdJLjJFYfBjrSrFMxHTEB/CHs/FcL1O7bOw3dp3rwvFHWZi/1QkA8M6aA+Ng8VgH6yLSwRhZKSAFpEATKpCZos2/iZvvbuKxE59IYiDN4lQCrMrSMovvGwkDj4+DdeCJePNt7W+/tcoxzuF5PLxl1A9n3MIQLM9Igl0vj2QGvvbKb+kFY1tPXLH8adcrJ4sKvPH6q5zQPn36HjL4MH/9Bx86ZP36d59b8azVWHRxxsGCB+aMPG0M+wQGbP5oE/sEHizqnPftCRf5G4aAGMw4flwr8SNPGvrMU8vWrl19wTln0mwdMcz+B0uo0g486NBrrroUEjy/cnmQk1HwBjcqnsgCsHRhfcDEsIvFeD/YfONlpYAUkALNpkBmijY7Mblu5fTa3dwszRiMpRcexxD4NEsHmW0WUpmPxQfwzqcJeNzuO2j/Sy5o41FN0wcl2nEnnEwdZs9OLD6PT3jCsF8/41sw1069gqbQMAo8/9xyjuXgQ4ZgDZzrAQP2ZIdQYJ151oTevXrPar/Tutpn3k7NxD4hxhhnrQue4t6RhToMZ+oXX1jJTrOxpM1zy7HVDTbQLAwO1oGmD3guE8fQTIELkyMFpIAUaBIF6r5oSzoP3MeT6C449zDAMTDAHCx+DCZyoNf5ODQT4VIRYz4W34LxzTHLI5D3HDyMrenbgXvtTdMe4Ti8YqG826VX78FfPpym2UUPzcdPBI9qvlUxL+BlSWKMyDpUgNdpvFTjXHPGbXmc65477MhOgIFfs+ZtV0IRAI+13YLjw7r8+s/vzd/v139A/sEukq0OXBOHrQjjAzIGYQDeLPH4WAfXxBGkgBSQAk2lQJaKNm7i3Lg5PVh8HLM4hqBpJBaeITiFglEOjHU+Ds0UBDMSD5MSH3f167f1SbnqzTfo4oXH92/6wW9eevH9jRv2/PxAGOyGjRtObR1LWgMv7eAN+Hwa49HOvOD5lcthrEu2zhWgguelmv+F1H0b7bt7f16zrVu7JjgESjrbLQHP5uGDaXEll6ViC/Gabb9BB/ADgJ8BRhZn2aVsRawbjg/jmubAGGg6B59gB5qCFChYAQ2QAg2hQM2KNp40FBZ2I+aR0H7vfPNjm/+LIu7yDO/yvBBjINIcLH5ZQCrASoJsMPAg4HM1Kcusi4flpCun/uTeH/3s8YeNwfIk7t9/j00ffkha4P9tExUe38tefeVl9xmL93mAUUKtFOBk3XbnPZx9cN/cRfM6l+DE4ELgdPtvyDibfKCkjKOYS1y8VWaJXWUh2UU/nHELqexqDf6gDf6Io7b+9w7tWGbn/tcw7FKCsUTiYPFx8gTBDnkOUVilFRh52hjOo2FG+/3mxDZlw8/rXDp3wRPxEGPqJycXZsoTava8xbbg2KYce9E5Z83unPPAo/Fcxvx4Tqc5sU1ZZ21z8rOw0nu1kfLXrGjjHQAPA7sRt44Y1nbGqebH9uKJZ6M4W5AuHAN+wBgfWGJAQDLWAG8OFr9EMBGwVDgxyE+v8fjpsH+a8NWvnfT1M751w3VTOh+ca/HG469du/qeu2fggMcf/SlNXsng86WMgpi3a/hCPShA3cN5d/jG6OGjWoa5pu9wIXCi/S+k7ttorgOx052rF969maPesr1nlia9+YAlsTDWyS8BSrTgR9QzTy2jyzA2j38NQyQLwHY5NWHAwnAcjJGtoQK8guVccxIdJrSd7vzASdnwo1qOGT3y2CDeNesnJ/s/5Qk1dtQJbs1cDtyK7V/zQKYce/45yeNj3NiWMacd7zO+/80xLX7T9/11+jx+zXPaU76GWzpDU9esaCtUIzZWPkMI4+buImkC1yzUIZUDY52PQzMAEwEjcWL4Xean2HXr1lB7feGLB15+6bncIolMeTzzGmbjhvd69d517332I1LItAKcTV6t8SWU76EU4uu3/btRjujdd9byTZyXrPgO9mGU3eIY59iGcVV+UDvSdJF5OtxYeSYN3GvfllNG5zkkCOPCAVwaAe+a9BpgCAM4AMeBpiAFpIAUaE4FchVt9a4Gd3Zu4pVeJVM4MJfzcWgCloGtBOyzFw9vHuGW/+BDhvB6csUvf0GTF2n2UMcH1GpUbNRtBNtA93WVXiFzCvCFlJKd96z+t1FOLvsBhm+m7oj8qs6R5hx73HC3YYypleUyMXDhgJRlWK/ZOMySwDsHX5ACUkAKNI8CWS3act3WOXMpXfQCu+Njfd+aMA7pedJ7XZKiHd6uvfjCSh7P9lYDiw8DT04r3ca1nYMPzjxrQp8+fZ94bBE+AYTxGcv94wMcQJeQFQXsC+nfH/M1SjcKOLds+/fC7rxzWnnvtXD+/dRzLsYcPmLuN+iAxxY/xH4wpgjLrvv+TT9wA9mBBx506Ko3X+ODqSNTHK4pLhOzOCAl2HX5YYwFdGEBXYAmFuAIda+AFigFpEA5Fchq0eY04Fbu/DwdbveJyHN4PmGsKkY8kKfg7I5HiBx52hh6sfgzZ3Xw5owmH7B44tofgGMXdc6DgQfwN1w3hZcuxAMepXS5Rym+/dMEugAvY/QPERAtQ6AI46UaC3bfRvFBcN6Ht4ya1X6HO+9UeOwTzjjgzesF55xZ4nkn8//5za/IZrjmezfxe4CPpKzEgZ8H1ovt8P5nG2hylRGGxU8HYYlgrI/EGJFSQApIgeZRIPNFG/d0ngfYlHOW3psy0O8iCRMF8AN8n+AYfoD5PIODv+dllP9fbqP8gjEED2B/LEloWk6zBNsobPCUtYBmt3V//Hbq/c1gS+ZEc7o5raD1z/+7BXRRYNGENMQDiUkHM8aj/I1EZmJcEn8ldAEWwDIsgKY5WPx0ECNIASkgBaRAlwpkr2jj7h8cVcwEAX6zoGB/ID5jY8AHICZgrJmLt15ZKSAFnAIpF0tKlxsuRwpIASlQDQWqPkf2iraqS6QJpYAUkAJSQApIASlQewVUtNX+HGgFUkAKSIHyKqBsUkAKNKQCpRZtF088GxQqTeeDc8e2nogtdKDiM6oAmwTU/+JZJKj/dWqFDamA/Zlg+8zbG/LomuGgrp16RfyHoc1w4DrGqilQatFWtYVqooZQQAchBaSAFJACUkAKFKmAirYihdMwKSAFpIAUkAJSoBYKNO+cKtqa99zryKWAFJACUkAKSIEMKaCiLUMnS0uVAlKgvhXQ6qSAFJAClVSg1KJt2vS7QKErbDll9OyOR7CFDlR8RhVgk4D6XzyLBPW/Tq2w/hXg/qa7XP2fppQVcisAKQHqkgLVV6DUoq36Ky5uxgUPL0scmItPDIYsNJ4hAUrPECTMp6kYKSAFpIAUyK4CiQ+ORDK7x6iV56NAloo2Nmg+SDzskScNZWxiVyJJsI/EmJj0h/h+HClGCkgBKSAFpEBFFfAfQ4Ff3LwaVXMFslS0UXgZUM0cZ30GP0+wicmQK5guQ66AmLd4LF1YB5qCFJACUkAKSIEiFEh/VKUn9B9Dvp8+Sr11q0CWirYSRWS/BhliJgigaVcL1mCM+WZh8gHB+YRVOWbylOtndzwyeMiRVZ5X00mBsiqgZFIgSwoU/feOPEd8cMxBE0ZobAWaomjzt3Wi3+U5prwDhGEDQAZgChisAb8UUFeRJ/572L332W/mrA66QGLhxRC6QMfCJdwjSlmDxkoBKSAFpEA+CrgbL/de7t6JQ449bviaNW/b/yYQMUQ6cFfn3u6PoouHjmPwHSCdj0MzBsMNdJmDxRcyqkBTFG3sZh+cKr+JD5MINnfcC5kY7JOM2oqThvpkoT6VFvXWbrt95v2NG4KxXNXf+e6NGze8Z7Nw/U+6cqp7YYZDGccQ620dMczuDjCCFJACUkAKVEIBu/H26r3rBeecafdeZmkbfz7WB2EDBuz5/Mrljly7drUbwl395tvauflbrz1usAbSGp+/ZYiBIeZg8YWMKtAURVvR54bNzaViw3Fomp9i8wxLyWBdXNit/+3MWe13zPnJ3cb49syzJvTu1XtW+51GmjP85FNpUs+dd+FllHH639BEDUEKSAEpUB0FxrWdw0R33HrjG6+/igOunXpF/L8ky416w8YNjz/6UwJi3HzDd9evf3fEqadzJ6eXh85WbPv9jwMDeMoYAp+m0PAKZKZosz1qlrNijrMBQ7MSsOnIbA4Wv0JYsfzpcV8fkesNWb/+AyjLiLHZB3/58F169d530P5c54cMPox67onHFllXbPkNxws8Fg+OOKqkd4FxcjFSQApIgSZUgJ/ZvD978YWV7racKAK3aG7Ur73yW1fYBWHw9Pbp05c7ueviXu0qNkj8GPCJYKyBXnOw+EJGFchM0ebvUbT2m/gBQ9PA7oxBV0zCwMcguXXhGIgxB4vvg0hIrJE4NM0vo+Wy5w38urVrLOfkKdcfPfSY51Y+S63Wd/f+/foNgP9Pf/clZjcQAGPgXf23J1y0qHMeCwPPPJX8n6+zYFkpkK6AeqWAFDAFBu61d88ddnz7rVXWzGW/dvw/UJA9/9xfvo3GkSTp2bOn3cnp5TbOvRqnODDWwHBzsPhCRhWoWdHG/qZ6YDsCXvy03zsfJxHTpt9VtLjszhhki0kY+FLA4i0JFr+UVOljqcyozywGcfr1HzB+XOumDz80Zs/PD+St215778MywA9n3MJPQKvbqPYo71595eX4jb2NlUWB/QYdwOkzsC3ZnOYHdl7n0rkLnghI15zRfr/zA+e+uYvmdS4JSGtWIifr5ygsf2xnz1sck8akrLOucs6a3TnngUdtzbH98ZzOmDQm5diLzonUiGP5ub9xl2NHCVLAKXDwoUNWvfla54NzHZPusJcIwDoETZ+nKwCPgICxZi7eemXrWYHaFG1s2dYRw9g3Bvy2M041P7aF/21WmuBscabApgUV1UdaNw6fKbCOKaMujJBiAAAQAElEQVTz7jtrN2zcsONOO82c1cH7NqcPJF1M9P7GDfZXbvhIzT2CF/JUbFbtPe/9ASwBgq8AYnLWHNiWbE7X9J1RLceMHnmsz/j+hLbT/abvf2P08FEtf9n8fteoCuRk/RyFP4vvjx11gt/0fX+dlP5sKqwFlCWnpXK26JzjxraMOe14lydwvjmmJWBcM+XYi86J1ByImwKfC9DfYPKbWYGWU0YP3GvffO7AmzdvXrdu67cU9hKKYR1oAtc0B8YHT58YBMQkDLyQIQVqU7RlQiDbzViuCqwDi3c+Ds0q443XX9244b1DDj3syWVLr516hc3O+zZzYkthx5s5Kra4S4wUkAJSQArkUKAAetWbb2z+aBMfOlLGHHzIkPXr3831TxDcQJKQioTG8AAyJ3/LEB8MpOlbmg7wQoYUyF7RRp3EbitOYjeWDPjpSSwGSxjWIW7CBCA58T4ZNP2uInzqMN58rPjlL2wsH0AHDNjztW1/3Gp/LTFwr72tC0s9517C0eSOgDXQZY6sFJACUkAKFK3AiuVPr1nz9oEHHcrdODEJ3zr44mF36cQAIxlOElKR0BizPFMM1szfMsp/+uDD5D9ckfWmQPaKtqIVZKeyX91wfBjXTHSISeTTSdIWNzA9rd+76KH5NO1fmDvHyOdWPEuJ5v7FeNv48/cbdADv5Hg/x12AewF3BO4LjJo2/S66cISMKaDlSgEpUH8KPPHYop477HjehZdRn9nqJk+5njuw+V87/h/44mF3aWNiy5150pVT4d3ft/A0MfBMMdCbJ9zAIJ481hXwamZCgYwVbWw1NlyhyjIKxANh4EGhCVPiyUbaxAC6EvlcJEUVQ6753k279OpNdYXf8ef/bQPKrxuum8LbNUjQq/eul196LiSpKM7+6erLcG678x66hreM+uGMW9y/PLj5hu9S0pGTLl7XLXhgDpGCFJACUkAKlKhA54NzL7mgjSR27+Uei+/uvQcfOoTfzHaXhvfRv/8eNoQ784svrBzbeqILs6eJWX8IyX34XfjWxShAMwY8sLC4V0w9K1DOoq3Sx8kOY58VNAtDAKNA4kB4QAxIDCiIJAnZcg2hKz0gGHjxxLMZ4sP/u2auaq5t6x0/rpVazQ3Hh7EufwgBfte12/7DjyQhFV2CFJACUkAKlKKAf4PlDsw91rKl/BMEYoh0oGlDnKXL+c6B9OF4c6zL/BSbZ1hKBnVVX4EsFW3ssFwC5eqCB7lGOZ4Y4Jo4QRPGobguG54y1gJkpYAUkAJNrkDjHX6e/wQhzwOPnyMxE6fKJyYeJabeFMhS0VZv2mk9UkAKSAEpIAW6VID3Z3z94D1cl5EKkALpCqhoS9dHvVLAKSBHCkgBKSAFpEAtFSi1aLt44tmglkegubOgAJsEZGGlWmOCAp0Pzh3beiI2oU+UFGhQBbhlgQY9OB1WDRUoaepSi7aSJtdgKSAFpIAUkAJSQApIgfwUUNGWn06KkgJSQAo0tgI6OikgBepeARVtdX+KtEApIAWkgBSQAlJACnTrpqJNu6DeFdD6pIAUkAJSQApIARQotWibNv0uQCJBCnSpwOAhR87ueMT977p0Ga+AelNg8pTrZ87qcP8rPfW2PK1HCkgBKZBLgcbgSy3aGkMFHYUUkAJSQApIASkgBepcARVtdX6CtDwpIAUaWwEdnRSQAlIgXwVUtOWrlOKkgBSQAlJACkgBKVBDBVS01VD8+p5aq5MCUkAKSAEpIAXqSQEVbfV0NrQWKSAFpIAUkAKNpICOpawKqGgrq5xKJgWkgBSQAlJACkiByiigoq0yuiqrFJAC9a2AVicFyq6A/VeNFjy8LMbsjkfoLfuMSthsCqhoa7YzruOVAlJACkiBiiiwYvnTjy1+KDH1iy+spDexS6QUyF8BFW35a1WdSM0iBaSAFJACWVXg8Ud/unbt6mD1MPfcPSMg1ZQCRShQhqJtv0EHuFfBs+ctdn7g3Dd30bzOJQFpzY6FS9rvnW9+bKucc9bszjkPPBovw5gfz+k0J7Yp6yw6J7IgTjwXzLzOpXMXPIGTiJR11jDnNd+7aZdevYvYphoiBaSAFMiEAm+8/uqTy5YGS4WBD8gKN5W+MRUotWi7eOLZI08a6jB21AnOD5xvjB4+qmVYQFqzdcSwtjNONT+2Vc45bmzLmNOOj5dhzDfHtJgT25R1Fp0TWRAnngtmVMsxo0cei5OIlHXWPGf7zNsb82LSUUkBKSAFunULXrbxmg1GwkiBsihQatFWlkUoiRSQAs2igI5TCjS6ArxU49WaO0p8GNeUIwVKUUBFWynqaawUkAJSQApIgVABXq3xgg0Wi48jSIGyKKCi7U8y6v+TAlJACkgBKVAWBXi1xgs2UmHxcQQpUBYFVLSVRUYlkQJSQApIASnQzUnQPvP2f1v6uF6zOUHklEUBFW1lkVFJpIAUkAJSQAr8lQI3ff8avWb7K0XUKFkBFW0lS6gEUiADCmiJUkAKSAEpkHkFVLRl/hTqAKSAFJACUkAKSIFmUKDWRVszaKxjlAJSQApIASkgBaRAyQqoaCtZQiWQAk2jwLVTrxg/rlV/ptM0Jzw7B6qVSoHmUEBFW3OcZx2lFJACUkAKSAEpkHEFVLRl/ARq+fWtgFYnBaSAFJACUqBcCqhoK5eSyiMFpIAUkAJSQApIgfIr4DKqaHNSyJECUqALBSZPuX7mrI6999mvizh1SwEpIAWkQAUUUNFWAVGVUgpIASnQFAroIKWAFKiqAiraqiq3JpMCUkAKSAEpIAWkQHEKqGgrTjeNqm8FtDopIAWkgBSQAg2ngIq2hjulOiApIAWkgBSQAlKgdAXqL4OKtvo7J1qRFJACUkAKSAEpIAUiBVS0RZKIkAJSQArUtwJanRSQAs2pgIq25jzvOmopIAWkgBSQAlIgYwqoaMvYCavv5Wp1UkAKSAEpIAWkQKUUUNFWKWWVVwpIASkgBaSAFChcAY3IqYCKtpzSqEMKSIFYgf7997jtznsWPLwMzJrdOeeBR3ES8eM5nYk8ZPu98zsWLsGJMa9z6dwFT8S8MZXIOaP9fkse2/vmLprXWcw66ycnOqO2f2jTpt8Vn9Z0puWU0eRxSfCDnK4LZ/a8xdhEFL1hspITWRAn8dibbWOjA9smfV+ptwgFVLQVIZqGSIEmVeDaqVeMPGmow7ixLWNOO941A+ebY1oCxjXbzji1dcQw1/SdUS3HjB55rM/4fiVyTmg73Z/C978xevioFm+d3rGPSl1n/eREZ9R2B/XqKy8Xt3c3f7TphzNusTxBTiOdHTvqBOcHTtEbJis5kRpxgqO2ZvqGabCNzVZhwxS30zQqXQEVben6qFcKSAEpIAWkgBSQAnWhgIq2ujgNJS5Cw6WAFJACUkAKSIGGV0BFW8OfYh2gFJACUkAKSIGuFVBE/Sugoq3+z5FWKAWkgBSQAlJACkiBbiratAmkgBSocwW0PCkgBaSAFNiqgIq2rSro/0kBKSAFpIAUkAJSoM4VUNFWwgnSUCkgBaSAFJACUkAKVEsBFW3VUlrzSAEpIAWkgBSIFRAjBfJWQEVb3lIpUApIASmQcQUunng2KPQgOh+cO7b1RGyhAxXfnAqwVbRhKnTqVbRVSFillQKZV0AHIAWkgBSQAnWlgIq2ujodWowUkAJSQApIASkgBZIVyGLRlnwkYqWAFJACUkAKSAEp0MAKqGhr4JOrQ5MCUkAKSIFcCoiXAtlTQEVb9s6ZViwFpIAUKE6BadPvAoWObTll9OyOR7CFDlS8FEABthzAEUpXQEVb6RoqgxQoqwJKJgUaUYEFDy/L/7Di4JiJs+UTE4+qJpNrhbn4aq5Nc2VCARVtmThNWqQUkAJSINsKjDxpaCmlSYnDU7RjVbmQa1SueMfnGph4FIyCzzWE3nTkGii+IRUooGhryOPXQUkBKSAFpEB1FEgpTaqzgFyzsLAYuYLh4+CAISYXiKQIc734MK4ZO/SmIx4ipoEVUNHWwCdXhyYFpIAUqJkClCOJCMj09fnBRAZNmAB+QOwHwVVuuvUwby6fLkEKpCigoi1FHHVJASkgBaRAkQrE74dIlEjCG4JSxsh4CIx1xZau/5+9sw2OqjrjuICAmvghRRKwvFdnOp2KxEipI52RURAj4UXCSKwUiTKgvEh1oNCIiIoiji1VsDgolNIWnAQEgwiCA9PiWIoYQNsvOoBAhQSQDyQiAUz/4Uwvl3v3Nbt79+7e38wzx+c855znPOd315n/nLsbIph7volY+9odM5Tc1l6bMju6inhg5eMn65hLV1R1697Tvp26CmpItqpqU2FRPzNaMWe+Ig7TTM03E2i9JIBo85I2e0EAAhCAQFgClojRDPkSCmrly1ErM45aE1fEspBBazSyo2xui7zEg1GdKHaLpR7pMKmxor631dUdc8yXApv97MsN9acNh9raozNmzdV8TZs3d6YJmnbKxDFarpmHvjqgUcxjAog2j4GzXWAJcHAIQCA+AlIJWiDhYhz5cuxdRTw27R67uWuzr9Woo6uI3XRYu2nI6tp9E1QkskmWPTZ1+pbNG16a95R75piHJuTm5K5YtsQMGad4yAjTtbd3Dbo3L6/Dh1s22oP4nhFAtHmGmo0gAAEIQCBWAhI0mqpWokSOZeoqaHXtjuIRzD7T4Ydc5ZhjutrdbRpyBxVR3GEKWqYhy5ejbkpNF2Pjx5YuW7oo5C4d8wt0u1aze6cZLbyl7zU5uT163SCpZyKmVfe2/nccOXywel2lidB6TKD1FR5vyHYQgAAEIBAMAg4xpEO7Iwo6THMUMTrGtOraLVxQ8XBmX+7wzRIFjaPW8uUEwSTFcnKvPV5Xaw5bMWe+lNnePZ/o7q3DdfkmaFpds+Xnd9q3Z7fp0npPgJs275mzIwQgAIGsIxDqQBJAdtMUe1e+InaTXJM54oq4zb6qxb7SRl0bbk68cbORVlmmiOXLUTddJmUmfWZ2X7h4uW7ddCd39rvvTMTe9u5TVFd3bOsH79mD+F4SQLR5SZu9IAABCEAgLAHJNZljWBFjihtHrfzETXmSrpYi5NSQ3VS/vStfkXCmOiNPCLcwlvjJE3X1DfXtr7pq6Yoq3bdNmzTOrFJQQ8ZXWzJ8VJeuPT7esV1vWtXF0kIA0ZYW7GzqHQF2ggAEspuABE0Ei3x2KSGtDTdHQ5rgHg0XNzO1RBOM702b4HYSYQ31p2/uc6sE2by5M03Num8zjtXeObD41KmTXLNZQNLiINrSgp1NIQABCEAgOQQkkiJYi/eQElJa9/JwcftMLdQ0KyLfbRp1BxVR3GEKKqEjmNyuLti+baiv+XSXSVtY1K+goPPB/V9Kz5mIuWazR0w8OK1PTopo88mDoAwIQAACEEgDgXB6KGS8ZfpJqdymo7qDiihut5btaM8Qi79xwzuaNrZ8olqZcUxQXZmu2c41nrVHFMS8J4Bo8545O0IAAhBIFgGf5pHUcJtqdQcVDFF9IgAADMRJREFUUdwye1e+3TTH0VUksmm+JqgNKYYUt8xMM127b0UUlDnyaFTBkOaYGXJO1KDyh8yjoIYsi5rHTKi4+G8bvLZkZX5+J5kcZSgfP1mjNbt3Lnhxjm7XFJHl5F77mycfVVBDMnPN9vlne6yIglhaCCDa0oKdTSEAAQhkMwGpitjNDkKrJBrUKqg2gmlCVNNyK5tjsoZiN8daq6sM4fJbc1rsRM6sre0Wyy7zLv+3Dcxy6y+3SZCVlQ42wfFjS60Xo8pcva6ydOgALZePpZcAoi29/LN3d04GAQhAoEUEpBtatC70ouRmc+/R4vxRF0ad4C6GSNYTQLRl/SPmgBCAAAQgAIHMJEDVlxNAtF3Ogx4EIAABCEAAAhDwJQFEmy8fC0VBAAL+JpCh1U2bNE4Wb/HV6yrLSgerjXch8yEgAvrIyeRgiRNAtCXOkAwQgAAEIAABCEAg5QQQbSlH7O0G7AYBCEAAAhCAQHYSQLRl53PlVBCAAAQgAIGWEmCdTwkg2nz6YCgLAhCAQNIJLFy8XJZ4WiWRJZ6HDEEgUFjUb1XVJvNXfINw3pSeEdGWUrwkhwAEkkqAZBCAAAQCTADRFuCHz9EhAAEIQAACEMgcAoi25DwrskAAAhDIRALFQ0a88uqbffvdnonFUzMEgkYA0Ra0J855IQABCFwi0ObKK7v3+NGs2S+89Mofe/a68dJAyrzy8ZNXVW0qLOqXsh2ciUuGj9KOap0DcfZV+dIVVd2694xzXRzTmQqByAQQbZH5MAoBCEAg+wm0adPmxz+5acHvl8z47XMFnTqn7sBSTsUlI7ds3lCze6fZZeHi5VXvblPcdOWoa9dGJrL+/R0yaS+j9tTKl4oyq9SaSMWc+fIddufA4trao+aPA9uzKaHMnsQsVEmKG7Mn3PrBe5ow+9mX0W3igKWFAKItLdjZFAKZRYBqA0GgXbv2t/9iwMJFyydMevKqq69O+pmlqx548GHJtWVLF9mTt23btvfNRSYiR13jq5VmemTC4xur1wy7p79swYtzxpZPjEszadOCgs779uxWNsvWr12tbLJm577R2sUMabK0YE7utVMmjtGoTHFL1R366sDrr76cm5M75qEJimMQ8J4Aos175uwIAQhAwL8ErsnJLR4yYslbb9//wEO6gUtiodJb9Q31K//0hpVT8ksKae+eT67/YVf5so75BX/fvtVMKBk+SirqX//cYYk8Cb5pk8ZJPJkJsbQ6izY1l2Tu+cp8YP8XPXrdoK01qgrVSplZW8ybO1NzFDSmAnRNqKpUm4nQQsBLAhku2rxExV4QgAAEAkMgL+8HZQ8+/PqbqwbePSQph5bQ0Y3Xxzu2W3rISlt77Gv5Nxfeetege+Wc+uaEbrM6XJevW7dzjWc3bnhHwZaZpJgE2cH9X7o3tRIer6s125kKP/9sj5SZNep2pP9OnTqpV67uISIQSDUBRFuqCZMfAhCAQEYSaNWqVadO1z82dcb0Wc/m5OQmeIbCW/q2bdf++PFad54z33779X8PS6L17lO0z/YeU7duuiQ7eaLOvSTGiFRgXl6HfXsvezfqWNu8S0O9dunStZsqPPr1EccER1f6TypQF4RShI4huhBINQFEW6oJkx8CEICAjwj07HWj+Yq92oWLl0eurL7+dOXqFb9bMLehoT7yzKijna/voguqvTWf2GfqOk23XIpIV+lKrG3bdjWf7lI3WSYVeOTwwep1leESVsyZLyAh7//CLVFcwk5aUFeD8jEIeEkA0eYlbfaCQHwEmA2B5BKYNmncsIvf6DetuuHyNzV9rxeFT0wp/9vKty5cuBBuWuxxXWhFmCxd1VB/+ty5RvNqUjdeuveKMD+WoZLho7p07WG/urNWDbtvtDSr7Kc39XnmqSft31qz5uBAwIcEEG0+fCiUBAEIQCCdBL45eWLxHxZUzJhce+xosuo4Xhfixag9uRSkTBG9Qj3XeLbZ+f+3zeS3wPS+VXd7Wy/+nQ7H8uYfjV4Ur2Wlg41M1IQjhw9pX90Iyo9qmqn5UacxAQLJJdAy0ZbcGsgGAQhAAAK+IHD+/PmP/rHt0fFlWzZvSG5BIV8pmuu046G+6Kbd9c5UV27FQ0bID2l2gWVSaYmZ2a17T71vPRjxJwhmptVKvdXWHtXdW2G0P/yrfRP8sp21KQ4E4iKAaIsLF5MhAAEIZCeBpqamI4cPzn++YsELs787cybph6z5dJdup3T7ZcscxdU7U5X0s5/3t/5SmuTUwsXLJcgksPT21hJYigwdcb+ElPWdubsG3ZubkxvvL08/3LJRMvGxqdOV0BRXMWe+tbuJaEhyUC9zD311wERoIeAZAUSbZ6jZCAIQgIBPCTQ2nl2/9u2pj47dtfOjFJUomRXjPZYKkHLq2LFAzrRJ49avXW19BW3GrLkrli0xamne3JnSbc88/8r693e8tmSlVNT4saVmSAt79ynSdtpUfuwmmfjElHLNV0Kllcl3fONNcjAvr4PknYYwCHhMANHmMXC2ywQC1AiBwBC4cP78f/69d8avJy5/c1FSfnAQgZz0lkbtrzslkspKB6tV3DJ1S4cOsKSSHPOzCbWabNdh0m0KGpO8szJE+AmCI7m1xHIk+yT+TE612sIakqOrvoF3D1ENyqMuBgGPCSDaPAbOdhCAAAR8REAvEJ+eNe3A/i88qElaZ8vmDXrdqXeOKd1OL2HD/QQhkX31YlRvTvUS1v6POiSSkLVZTiAFx0O0pQAqKSEAAQhAIBQBXZvpdaf1XbRQU5IQ0/WYbst0Z5aEXLYUejGq3nNPT096ZqXFIBALAURbLJSYAwEIQCB7CKT3JNJtjrec6a0n9t1VeSq0YOwFMBMCiDY+AxCAAAQgEB+BaZPGyeJbw+ygEtBrccl0Sd6gAkjmuRFtyaRJrsQIsBoCEIAABCAAgbAEEG1h0TAAAQhAAAIQgECmEcjmehFt2fx0ORsEIAABCEAAAllDANGWNY+Sg0AAAv4mQHUQgAAEEiOAaEuMH6shAAEIZDuBkuGjVlVtUpvtB+V8ySGgjwofmOSgdGVBtLmQBC/AiSEAAQhAAAIQ8D8BRJv/nxEVQgACEIAABPxOgPo8IIBo8wAyW0AAAhCAAAQgAIFECSDaEiXIeghAwN8EqA4CEIBAlhBAtGXJg+QYEIAABCAAAQhkNwFEW/qeLztDAAIQgAAEIACBmAkg2mJGxUQIQAACEICA3whQT5AIINqC9LQ5KwQgAAEIQAACGUsA0Zaxj47CIeBvAlQHAQhAAALJJYBoSy5PskEAAhDIQgJt27V/ZMLj69/fIat6d9uyv7wjJ6StWrM5ZFzBFauqV6/9QE5I+/Pq6pBxBTMlp7AIjgp225rq7ZXrP3THTSTC2Vuc841lb5vk7vavlRvXVG9zxxWJXGeMOfVR0QcmC/838MGRAijafECdEiAAAQhkDoHqdZWlQwcMu6e/MfnlD44wvrstG3m3O2giY8tKRt83yPju9lejS9xBE8mUnMIiOKZmRzuy5I5Rw+50BK1uhLO3OOeE8vut/A7nl6OKR5ZceqD20ZER64w9pzjoY5M5n/GMqRTRljGPikIhAAEIQMA3BCgEAmkggGhLA3S2hAAEIAABCEAAAvESQLTFS4z5EPA3AaqDAAQgAIEsJYBoy9IHy7EgAAEIQAACEMguAt6JtuzixmkgAAEIQAACEICApwQQbZ7iZjMIQAACEEiEAGshEGQCiLYgP33ODgEIQAACEIBAxhBAtGXMo6JQfxOgOghAAAIQgEBqCSDaUsuX7BCAAAQgAAEIQCA2AlFmIdqiAGIYAhCAAAQgAAEI+IEAos0PT4EaIAABCPibANVBAAI+IIBo88FDoAQIQAACEIAABCAQjQCiLRohxv1NgOogAAEIQAACASGAaAvIg+aYEIAABCAAAQiEJpApUURbpjwp6oQABCAAAQhAINAEEG2BfvwcHgIQ8DcBqoMABCBwiQCi7RILPAhAAAIQgAAEIOBbAog23z4afxdGdRCAAAQgAAEIeEsA0eYtb3aDAAQgAAEIQMAQoI2TAKItTmBMhwAEIAABCEAAAukggGhLB3X2hAAE/E2A6iAAAQj4kACizYcPhZIgAAEIQAACEICAk0DrpiZniL6PCVAaBCAAAQhAAAJBJCDB1vrcFa2CeHTODAEIQAACEAgoAY6dkQQk2Fqf/74Vd20Z+fQoGgIQgAAEIACBYBCQVJNga/5OW+P3XLYF45lzSgj4nADlQQACEIBAKAJGqjWLtgtNrc5y3xaKETEIQAACEIAABCCQRgK6Y5NIk1RTDc2iTf9R58yF1o1NrZo0qD52OQF6EIAABCAAAQhAwEsCkmQSZpJnEmlm3/8BAAD//xThpL8AAAAGSURBVAMA6aac8deuQ5IAAAAASUVORK5CYII=;" vertex="1" parent="1">
          <mxGeometry x="1030" y="109.11000000000003" width="398" height="241.78" as="geometry" />
        </mxCell>
        <mxCell id="gRE93O7xviKR9VaK8GBR-30" style="edgeStyle=orthogonalEdgeStyle;rounded=0;orthogonalLoop=1;jettySize=auto;html=1;entryX=0.5;entryY=0;entryDx=0;entryDy=0;" edge="1" parent="1" source="gRE93O7xviKR9VaK8GBR-10" target="gRE93O7xviKR9VaK8GBR-16">
          <mxGeometry relative="1" as="geometry" />
        </mxCell>
        <mxCell id="gRE93O7xviKR9VaK8GBR-33" value="I/Q数据" style="edgeLabel;html=1;align=center;verticalAlign=middle;resizable=0;points=[];" vertex="1" connectable="0" parent="gRE93O7xviKR9VaK8GBR-30">
          <mxGeometry x="-0.1481" y="1" relative="1" as="geometry">
            <mxPoint as="offset" />
          </mxGeometry>
        </mxCell>
        <mxCell id="gRE93O7xviKR9VaK8GBR-39" style="edgeStyle=orthogonalEdgeStyle;rounded=0;orthogonalLoop=1;jettySize=auto;html=1;entryX=0;entryY=0.5;entryDx=0;entryDy=0;" edge="1" parent="1" source="gRE93O7xviKR9VaK8GBR-10" target="gRE93O7xviKR9VaK8GBR-18">
          <mxGeometry relative="1" as="geometry" />
        </mxCell>
        <mxCell id="gRE93O7xviKR9VaK8GBR-41" value="实现" style="edgeLabel;html=1;align=center;verticalAlign=middle;resizable=0;points=[];fontStyle=1" vertex="1" connectable="0" parent="gRE93O7xviKR9VaK8GBR-39">
          <mxGeometry x="-0.3074" relative="1" as="geometry">
            <mxPoint as="offset" />
          </mxGeometry>
        </mxCell>
        <mxCell id="gRE93O7xviKR9VaK8GBR-10" value="&lt;font style=&quot;font-size: 15px;&quot;&gt;信号采集单元（103）&lt;/font&gt;" style="swimlane;whiteSpace=wrap;html=1;fontFamily=Times New Roman;startSize=23;" vertex="1" parent="1">
          <mxGeometry x="380" y="330" width="210" height="90" as="geometry" />
        </mxCell>
        <mxCell id="gRE93O7xviKR9VaK8GBR-11" value="前置放大器 103a&lt;div&gt;ADC 103b&lt;/div&gt;&lt;div&gt;KF-LIA 模块 103c&lt;/div&gt;" style="text;html=1;align=center;verticalAlign=middle;resizable=0;points=[];autosize=1;strokeColor=none;fillColor=none;fontStyle=1;fontFamily=Times New Roman;fontSize=16;" vertex="1" parent="gRE93O7xviKR9VaK8GBR-10">
          <mxGeometry x="30" y="20" width="150" height="70" as="geometry" />
        </mxCell>
        <mxCell id="gRE93O7xviKR9VaK8GBR-40" style="edgeStyle=orthogonalEdgeStyle;rounded=0;orthogonalLoop=1;jettySize=auto;html=1;entryX=0;entryY=0.5;entryDx=0;entryDy=0;" edge="1" parent="1" source="gRE93O7xviKR9VaK8GBR-16" target="gRE93O7xviKR9VaK8GBR-18">
          <mxGeometry relative="1" as="geometry" />
        </mxCell>
        <mxCell id="gRE93O7xviKR9VaK8GBR-42" value="实现" style="edgeLabel;html=1;align=center;verticalAlign=middle;resizable=0;points=[];fontStyle=1" vertex="1" connectable="0" parent="gRE93O7xviKR9VaK8GBR-40">
          <mxGeometry x="0.0977" y="-1" relative="1" as="geometry">
            <mxPoint as="offset" />
          </mxGeometry>
        </mxCell>
        <mxCell id="gRE93O7xviKR9VaK8GBR-16" value="&lt;font style=&quot;font-size: 15px;&quot;&gt;参数解算单元（105）&lt;/font&gt;" style="swimlane;whiteSpace=wrap;html=1;fontFamily=Times New Roman;startSize=23;" vertex="1" parent="1">
          <mxGeometry x="380" y="460" width="210" height="90" as="geometry" />
        </mxCell>
        <mxCell id="gRE93O7xviKR9VaK8GBR-17" value="VOD-TSE模块 105a&lt;div&gt;非线性补偿算法&lt;/div&gt;" style="text;html=1;align=center;verticalAlign=middle;resizable=0;points=[];autosize=1;strokeColor=none;fillColor=none;fontStyle=1;fontFamily=Times New Roman;fontSize=16;" vertex="1" parent="gRE93O7xviKR9VaK8GBR-16">
          <mxGeometry x="25" y="30" width="160" height="50" as="geometry" />
        </mxCell>
        <mxCell id="gRE93O7xviKR9VaK8GBR-52" style="edgeStyle=orthogonalEdgeStyle;rounded=0;orthogonalLoop=1;jettySize=auto;html=1;exitX=0.5;exitY=0;exitDx=0;exitDy=0;entryX=0.5;entryY=1;entryDx=0;entryDy=0;" edge="1" parent="1" source="gRE93O7xviKR9VaK8GBR-18" target="gRE93O7xviKR9VaK8GBR-46">
          <mxGeometry relative="1" as="geometry" />
        </mxCell>
        <mxCell id="gRE93O7xviKR9VaK8GBR-53" value="C/D结果" style="edgeLabel;html=1;align=center;verticalAlign=middle;resizable=0;points=[];fontStyle=1" vertex="1" connectable="0" parent="gRE93O7xviKR9VaK8GBR-52">
          <mxGeometry x="-0.1019" y="-1" relative="1" as="geometry">
            <mxPoint as="offset" />
          </mxGeometry>
        </mxCell>
        <mxCell id="gRE93O7xviKR9VaK8GBR-18" value="&lt;font style=&quot;font-size: 15px;&quot;&gt;数字处理核心（104）&lt;/font&gt;" style="swimlane;whiteSpace=wrap;html=1;fontFamily=Times New Roman;startSize=23;" vertex="1" parent="1">
          <mxGeometry x="640" y="460" width="210" height="90" as="geometry" />
        </mxCell>
        <mxCell id="gRE93O7xviKR9VaK8GBR-35" value="FPGA&lt;div&gt;KF-LIA 逻辑&lt;/div&gt;&lt;div&gt;VOD-TSE逻辑&lt;/div&gt;" style="text;html=1;align=center;verticalAlign=middle;resizable=0;points=[];autosize=1;strokeColor=none;fillColor=none;fontStyle=1;fontFamily=Times New Roman;fontSize=16;" vertex="1" parent="gRE93O7xviKR9VaK8GBR-18">
          <mxGeometry x="45" y="20" width="120" height="70" as="geometry" />
        </mxCell>
        <mxCell id="gRE93O7xviKR9VaK8GBR-54" style="edgeStyle=orthogonalEdgeStyle;rounded=0;orthogonalLoop=1;jettySize=auto;html=1;exitX=0.5;exitY=0;exitDx=0;exitDy=0;" edge="1" parent="1" source="gRE93O7xviKR9VaK8GBR-43">
          <mxGeometry relative="1" as="geometry">
            <mxPoint x="590" y="120" as="targetPoint" />
            <Array as="points">
              <mxPoint x="745" y="120" />
            </Array>
          </mxGeometry>
        </mxCell>
        <mxCell id="gRE93O7xviKR9VaK8GBR-55" value="校准信号" style="edgeLabel;html=1;align=center;verticalAlign=middle;resizable=0;points=[];fontStyle=1" vertex="1" connectable="0" parent="gRE93O7xviKR9VaK8GBR-54">
          <mxGeometry x="-0.6627" y="-1" relative="1" as="geometry">
            <mxPoint as="offset" />
          </mxGeometry>
        </mxCell>
        <mxCell id="gRE93O7xviKR9VaK8GBR-43" value="&lt;font style=&quot;font-size: 15px;&quot;&gt;自校准单元（106）&lt;/font&gt;" style="swimlane;whiteSpace=wrap;html=1;fontFamily=Times New Roman;startSize=23;" vertex="1" parent="1">
          <mxGeometry x="640" y="200" width="210" height="90" as="geometry" />
        </mxCell>
        <mxCell id="gRE93O7xviKR9VaK8GBR-44" value="标准电容 106a/106b/106c&lt;div&gt;&lt;div&gt;&lt;div&gt;开关阵列 106d&lt;/div&gt;&lt;/div&gt;&lt;/div&gt;" style="text;html=1;align=center;verticalAlign=middle;resizable=0;points=[];autosize=1;strokeColor=none;fillColor=none;fontStyle=1;fontFamily=Times New Roman;fontSize=16;" vertex="1" parent="gRE93O7xviKR9VaK8GBR-43">
          <mxGeometry x="10" y="30" width="190" height="50" as="geometry" />
        </mxCell>
        <mxCell id="gRE93O7xviKR9VaK8GBR-50" style="edgeStyle=orthogonalEdgeStyle;rounded=0;orthogonalLoop=1;jettySize=auto;html=1;exitX=0.5;exitY=0;exitDx=0;exitDy=0;entryX=0.5;entryY=1;entryDx=0;entryDy=0;" edge="1" parent="1" source="gRE93O7xviKR9VaK8GBR-46" target="gRE93O7xviKR9VaK8GBR-43">
          <mxGeometry relative="1" as="geometry" />
        </mxCell>
        <mxCell id="gRE93O7xviKR9VaK8GBR-51" value="指令" style="edgeLabel;html=1;align=center;verticalAlign=middle;resizable=0;points=[];fontStyle=1" vertex="1" connectable="0" parent="gRE93O7xviKR9VaK8GBR-50">
          <mxGeometry x="0.0231" relative="1" as="geometry">
            <mxPoint as="offset" />
          </mxGeometry>
        </mxCell>
        <mxCell id="gRE93O7xviKR9VaK8GBR-46" value="&lt;font style=&quot;font-size: 15px;&quot;&gt;主控与显示单元 107&lt;/font&gt;" style="swimlane;whiteSpace=wrap;html=1;fontFamily=Times New Roman;startSize=23;" vertex="1" parent="1">
          <mxGeometry x="640" y="330" width="210" height="90" as="geometry" />
        </mxCell>
        <mxCell id="gRE93O7xviKR9VaK8GBR-47" value="（MCU/PC）" style="text;html=1;align=center;verticalAlign=middle;resizable=0;points=[];autosize=1;strokeColor=none;fillColor=none;fontStyle=1;fontFamily=Times New Roman;fontSize=16;" vertex="1" parent="gRE93O7xviKR9VaK8GBR-46">
          <mxGeometry x="45" y="40" width="120" height="30" as="geometry" />
        </mxCell>
      </root>
    </mxGraphModel>
  </diagram>
</mxfile>
